<?xml version="1.0" encoding="UTF-8" standalone="no"?>
<svg
   xmlns:dc="http://purl.org/dc/elements/1.1/"
   xmlns:cc="http://creativecommons.org/ns#"
   xmlns:rdf="http://www.w3.org/1999/02/22-rdf-syntax-ns#"
   xmlns:svg="http://www.w3.org/2000/svg"
   xmlns="http://www.w3.org/2000/svg"
   xmlns:sodipodi="http://sodipodi.sourceforge.net/DTD/sodipodi-0.dtd"
   xmlns:inkscape="http://www.inkscape.org/namespaces/inkscape"
   id="f28a0f65-80a1-4e0a-b578-5220816c7620"
   data-name="Layer 1"
   width="691.33587"
   height="489.02997"
   viewBox="0 0 691.33587 489.02997"
   version="1.1"
   sodipodi:docname="add_organisation.svg"
   inkscape:version="1.0.2 (e86c8708, 2021-01-15)">
  <metadata
     id="metadata166">
    <rdf:RDF>
      <cc:Work
         rdf:about="">
        <dc:format>image/svg+xml</dc:format>
        <dc:type
           rdf:resource="http://purl.org/dc/dcmitype/StillImage" />
        <dc:title></dc:title>
      </cc:Work>
    </rdf:RDF>
  </metadata>
  <defs
     id="defs164" />
  <sodipodi:namedview
     pagecolor="#ffffff"
     bordercolor="#666666"
     borderopacity="1"
     objecttolerance="10"
     gridtolerance="10"
     guidetolerance="10"
     inkscape:pageopacity="0"
     inkscape:pageshadow="2"
     inkscape:window-width="1440"
     inkscape:window-height="872"
     id="namedview162"
     showgrid="false"
     inkscape:zoom="0.92370266"
     inkscape:cx="345.66794"
     inkscape:cy="244.51498"
     inkscape:window-x="0"
     inkscape:window-y="28"
     inkscape:window-maximized="0"
     inkscape:current-layer="f28a0f65-80a1-4e0a-b578-5220816c7620"
     inkscape:document-rotation="0" />
  <path
     d="M942.37829,365.12258c-9.53656,33.08356-37.38213,56.2424-66.42859,75.91553q-6.0835,4.12119-12.17087,8.05276c-.02749.012-.05582.03768-.08365.05-.19525.12542-.39088.2511-.5728.37734-.83757.5399-1.67544,1.08016-2.50606,1.61384l.45626.205s.448.23823-.04214.03819c-.14589-.061-.29872-.11582-.44431-.17719-16.87415-6.80561-34.048-14.11275-46.97949-26.8619-13.41453-13.23916-21.25393-34.00418-13.99008-51.39659a33.20766,33.20766,0,0,1,3.5956-6.45359c.5892-.84313,1.22378-1.65009,1.88447-2.4421A35.59319,35.59319,0,0,1,866.229,374.85964c2.134-19.86884-14.24941-36.512-30.016-48.79213-15.77356-12.274-33.69674-25.64058-36.74619-45.39912-1.70294-10.9934,2.11992-21.64706,9.08376-30.19945.2156-.25986.43089-.51936.653-.7721a51.945,51.945,0,0,1,33.387-17.91151c24.18672-2.51372,47.6804,10.28875,65.25152,27.10539C936.12263,285.94754,953.21951,327.50678,942.37829,365.12258Z"
     transform="translate(-254.33206 -205.48502)"
     fill="#f2f2f2"
     id="path107" />
  <path
     d="M896.916,321.84967a88.30333,88.30333,0,0,1,10.57914,23.333,76.67467,76.67467,0,0,1,2.65029,22.64563c-.43468,15.70057-5.26563,31.043-12.86659,44.708a141.38984,141.38984,0,0,1-21.32914,28.50182q-6.0835,4.12119-12.17087,8.05276c-.02749.012-.05582.03768-.08365.05-.19525.12542-.39088.2511-.5728.37734-.83757.5399-1.67544,1.08016-2.50606,1.61384,0,0,.90429.4432.41412.24316-.14589-.061-.29872-.11582-.44431-.17719a78.15741,78.15741,0,0,0-25.0093-67.29586A78.82691,78.82691,0,0,0,803.21216,366.486c.5892-.84313,1.22378-1.65009,1.88447-2.4421a81.72794,81.72794,0,0,1,13.49027,5.10487,80.08109,80.08109,0,0,1,36.20832,34.909,81.87421,81.87421,0,0,1,8.91443,44.92834c.69331-.62828,1.38747-1.2702,2.06069-1.90606,12.82253-11.95459,24.2115-25.67651,31.91919-41.51276a91.39288,91.39288,0,0,0,9.57005-43.241c-.62905-16.3343-7.13721-31.46406-16.56016-44.63539-10.09394-14.09647-22.74877-26.5681-36.26251-37.3723a217.37693,217.37693,0,0,0-45.09985-27.84376,1.56289,1.56289,0,0,1-.78653-2.00584,1.32935,1.32935,0,0,1,.653-.7721,1.15723,1.15723,0,0,1,1.005.0427c1.98939.91584,3.965,1.8442,5.92469,2.8127a219.84437,219.84437,0,0,1,45.42128,29.96187C874.92422,293.91268,887.51108,306.93552,896.916,321.84967Z"
     transform="translate(-254.33206 -205.48502)"
     fill="#fff"
     id="path109" />
  <rect
     x="1.08599"
     y="30.47938"
     width="542.31608"
     height="2.17361"
     fill="#3f3d56"
     id="rect133" />
  <circle
     cx="19.56169"
     cy="16.30746"
     r="6.52083"
     fill="#3f3d56"
     id="circle135" />
  <circle
     cx="38.30909"
     cy="16.30746"
     r="6.52083"
     fill="#3f3d56"
     id="circle137" />
  <circle
     cx="57.05649"
     cy="16.30746"
     r="6.52083"
     fill="#3f3d56"
     id="circle139" />
  <path
     d="M680.28324,362.107H372.48438a6.97561,6.97561,0,1,1,0-13.95122H680.28324a6.97561,6.97561,0,1,1,0,13.95122Z"
     transform="translate(-254.33206 -205.48502)"
     fill="#ccc"
     id="path141" />
  <path
     d="M680.28324,437.09483H372.48438a6.97561,6.97561,0,1,1,0-13.95122H680.28324a6.97561,6.97561,0,1,1,0,13.95122Z"
     transform="translate(-254.33206 -205.48502)"
     fill="#e6e6e6"
     id="path143" />
  <path
     d="M680.28324,465.86923H372.48438a6.97561,6.97561,0,1,1,0-13.95122H680.28324a6.97561,6.97561,0,1,1,0,13.95122Z"
     transform="translate(-254.33206 -205.48502)"
     fill="#e6e6e6"
     id="path145" />
  <path
     d="M630.146,332.46066H422.62159a6.97561,6.97561,0,1,1,0-13.95122H630.146a6.97561,6.97561,0,0,1,0,13.95122Z"
     transform="translate(-254.33206 -205.48502)"
     fill="#ccc"
     id="path147" />
  <path
     d="M480.99771,408.32044h-108.122a6.97562,6.97562,0,1,1,0-13.95123h108.122a6.97561,6.97561,0,0,1,0,13.95123Z"
     transform="translate(-254.33206 -205.48502)"
     fill="#e6e6e6"
     id="path149" />
  <path
     d="M680.67458,408.32044h-108.122a6.97562,6.97562,0,1,1,0-13.95123h108.122a6.97562,6.97562,0,1,1,0,13.95123Z"
     transform="translate(-254.33206 -205.48502)"
     fill="#e6e6e6"
     id="path151" />
  <path
     d="M791.212,205.485H261.93216a7.61168,7.61168,0,0,0-7.6001,7.61v358.65a7.6096,7.6096,0,0,0,7.6001,7.6h395.79c-.1001-.72-.18017-1.45-.26025-2.17H261.93216a5.435,5.435,0,0,1-5.43017-5.43V213.095a5.44356,5.44356,0,0,1,5.43017-5.44H791.212a5.44563,5.44563,0,0,1,5.43994,5.44v219.81c.72021.05,1.45019.11,2.17041.18V213.095A7.61385,7.61385,0,0,0,791.212,205.485Z"
     transform="translate(-254.33206 -205.48502)"
     fill="#3f3d56"
     id="path153" />
  <path
     d="M657.7222,579.345c-.1001-.72-.18017-1.45-.26025-2.17-.02-.11-.02979-.21-.04-.32q-.43506-3.945-.62988-7.97-.82471,3.465-1.48975,6.96c.02978.34.06006.67.09961,1.01.01025.11.02.21.04.32.08008.72.16015,1.45.26025,2.17.27979,2.23.62012,4.43,1.02,6.62.00977-.09.02-.17.02979-.26.28027-2.11.60009-4.21.98-6.31A.092.092,0,0,1,657.7222,579.345Zm141.1001-148.27c-.72022-.07-1.4502-.13-2.17041-.18-.10986-.01-.21-.01-.31983-.02-3.20019-.24-6.43994-.36-9.70019-.36a132.0411,132.0411,0,0,0-131.32959,145.33c.02978.34.06006.67.09961,1.01.01025.11.02.21.04.32.08008.72.16015,1.45.26025,2.17.27979,2.23.62012,4.43,1.02,6.62a132.57434,132.57434,0,0,0,79.27,98.45c2.08008.86,4.17969,1.68,6.31006,2.43,1.3999.51,2.7998.98,4.21973,1.43,1.02.33,2.05029.64,3.08007.94,1.46.43,2.93995.84,4.43018,1.22a131.35519,131.35519,0,0,0,107.61963-19.38h.01025a131.92892,131.92892,0,0,0,56.96973-108.54C918.63187,493.835,865.91214,437.245,798.8223,431.075ZM860.792,669.225a129.37688,129.37688,0,0,1-19.33008,11.15,128.00858,128.00858,0,0,1-14.93994,5.88,130.22913,130.22913,0,0,1-71.08008,2.47q-2.63965-.645-5.23975-1.41-2.56494-.75-5.08008-1.59c-1.37011-.47-2.74023-.95-4.10009-1.46-1.41993-.54-2.81983-1.1-4.21973-1.68A130.33475,130.33475,0,0,1,657.732,579.395a.092.092,0,0,1-.00977-.05c-.1001-.72-.18017-1.45-.26025-2.17-.02-.11-.02979-.21-.04-.32q-.43506-3.945-.62988-7.97-.16481-3.165-.16016-6.37a130.14245,130.14245,0,0,1,130-130c3.26025,0,6.5.12,9.70019.36.10987.01.21.02.31983.03.72021.05,1.45019.11,2.17041.18,65.98974,6.16,117.80957,61.85,117.80957,129.43A129.91362,129.91362,0,0,1,860.792,669.225Zm-119.77,15.04c-1.41993-.54-2.81983-1.1-4.21973-1.68A130.33475,130.33475,0,0,1,657.732,579.395c-.37989,2.1-.69971,4.2-.98,6.31-.00977.09-.02.17-.02979.26a132.57434,132.57434,0,0,0,79.27,98.45c2.08008.86,4.17969,1.68,6.31006,2.43C741.86234,685.995,741.43216,685.135,741.022,684.265Zm55.31-253.39c-3.20019-.24-6.43994-.36-9.70019-.36a132.0411,132.0411,0,0,0-131.32959,145.33c.02978.34.06006.67.09961,1.01.01025.11.02.21.04.32h2.02c-.02-.11-.02979-.21-.04-.32q-.43506-3.945-.62988-7.97-.16481-3.165-.16016-6.37a130.14245,130.14245,0,0,1,130-130c3.26025,0,6.5.12,9.70019.36.10987.01.21.02.31983.03v-2.01C796.542,430.885,796.44193,430.885,796.33206,430.875Z"
     transform="translate(-254.33206 -205.48502)"
     fill="#3f3d56"
     id="path155" />
  <ellipse
     cx="464.15045"
     cy="336.85358"
     fill="#ff6584"
     id="circle910"
     rx="12.412501"
     ry="19.18553"
     style="stroke-width:0.241122" />
  <path
     d="m 489.56986,445.22184 h -0.0126 a 1.6503933,2.5509498 0 0 1 -1.64853,-2.54808 V 293.0866 a 1.6503933,2.5509498 0 0 1 1.64853,-2.54808 h 81.45703 a 1.6503778,2.5509259 0 0 1 1.64854,2.54808 v 116.31226 a 1.6503177,2.550833 0 0 1 -1.63575,2.54793 z"
     fill="#f2f2f2"
     id="path912"
     style="stroke-width:0.241122" />
  <path
     d="m 549.7773,269.40445 h -37.81934 v -33.87444 a 1.7475095,2.7010586 0 0 1 1.74551,-2.69796 h 34.32831 a 1.7475076,2.7010556 0 0 1 1.74552,2.69796 z m -37.43145,-0.59954 h 37.04355 v -33.2749 a 1.3591418,2.1007734 0 0 0 -1.35762,-2.09842 h -34.32831 a 1.3591437,2.1007764 0 0 0 -1.35762,2.09842 z"
     fill="#3f3d56"
     id="path914"
     style="stroke-width:0.241122" />
  <path
     d="m 522.72192,245.72232 h 16.29142 a 1.5515626,2.398191 0 0 1 1.55156,2.39819 v 35.97286 h -19.39454 v -35.97286 a 1.5515626,2.398191 0 0 1 1.55156,-2.39819 z"
     fill="#e6e6e6"
     id="path916"
     style="stroke-width:0.241122" />
  <path
     d="m 591.26417,414.14724 c -0.0773,0 -0.15256,0 -0.22988,-0.003 a 19.68977,30.433725 0 0 1 -12.97388,-7.83818 q -0.1976,-0.27797 -0.39192,-0.56325 l -0.06,-0.0886 v -57.45244 l 0.0186,-0.0608 c 0.12837,-0.42067 0.25862,-0.83535 0.38883,-1.25003 4.03413,-12.65929 8.73901,-19.63021 13.24838,-19.63021 6.50289,0 11.54623,13.7877 13.97367,22.0063 3.37558,11.42859 5.73308,25.58998 5.73308,34.43813 a 19.700218,30.449874 0 0 1 -19.48161,30.43905 c -0.0725,0.003 -0.14981,0.003 -0.22514,0.003 z m -13.26783,-8.7501 c 0.10745,0.15691 0.21596,0.31176 0.32449,0.46459 a 19.303573,29.836795 0 0 0 12.72046,7.68301 c 0.0785,0.003 0.15285,-2.9e-4 0.228,0.003 0.0704,0 0.14256,0 0.21293,-0.003 10.53352,-0.18061 19.10082,-13.56666 19.10082,-29.83964 0,-8.77131 -2.34311,-22.83039 -5.69805,-34.18915 -2.38879,-8.08775 -7.33483,-21.65574 -13.62082,-21.65574 -4.35378,0 -8.93502,6.85205 -12.89992,19.29399 -0.12287,0.39126 -0.24617,0.78398 -0.36791,1.18183 z"
     fill="#3f3d56"
     id="path920"
     style="stroke-width:0.241122" />
  <path
     d="m 591.26323,450.49422 a 0.22315156,0.34491683 0 0 1 -0.22313,-0.34489 v -70.40735 a 0.22313798,0.34489585 0 1 1 0.44627,0 v 70.40735 a 0.22315156,0.34491683 0 0 1 -0.22314,0.34489 z"
     fill="#cccccc"
     id="path922"
     style="stroke-width:0.241122" />
  <path
     d="m 475.47787,450.49422 a 0.22315156,0.34491683 0 0 1 -0.22313,-0.34489 v -70.40735 a 0.22313798,0.34489585 0 1 1 0.44627,0 v 70.40735 a 0.22315156,0.34491683 0 0 1 -0.22314,0.34489 z"
     fill="#cccccc"
     id="path924"
     style="stroke-width:0.241122" />
  <path
     d="m 591.26335,392.89653 a 0.22262208,0.34409845 0 0 1 -0.16871,-0.11889 l -11.22239,-20.00398 a 0.22317677,0.3449558 0 0 1 0.33721,-0.452 l 11.2224,20.00398 a 0.22319811,0.34498878 0 0 1 -0.1685,0.5709 z"
     fill="#cccccc"
     id="path926"
     style="stroke-width:0.241122" />
  <path
     d="m 591.26323,404.44114 a 0.22313798,0.34489585 0 0 1 -0.15775,-0.58876 l 6.37676,-9.85649 a 0.22311579,0.34486155 0 0 1 0.31553,0.48771 l -6.37675,9.8565 a 0.22232535,0.34363979 0 0 1 -0.15779,0.10104 z"
     fill="#cccccc"
     id="path928"
     style="stroke-width:0.241122" />
  <path
     d="m 611.90814,450.6368 h -16.68031 v -0.29978 a 8.3401485,12.891049 0 1 1 16.6803,0 z m -16.29008,-0.59955 h 15.89986 a 7.9523015,12.291568 0 0 0 -15.89988,0 z"
     fill="#3f3d56"
     id="path930"
     style="stroke-width:0.241122" />
  <path
     d="m 603.56796,443.02043 a 0.2201842,0.3403303 0 0 0 -0.22018,0.3403 v 3.61513 l -2.27838,-3.02259 a 0.22018323,0.34032882 0 1 0 -0.28685,0.51645 l 2.56523,3.40308 v 2.12387 a 0.22017838,0.3403213 0 1 0 0.44035,0 v -6.63594 a 0.2201842,0.3403303 0 0 0 -0.22017,-0.3403 z"
     fill="#3f3d56"
     id="path932"
     style="stroke-width:0.241122" />
  <path
     d="m 472.07355,450.6368 h -16.6803 v -0.29978 a 8.3401481,12.891048 0 1 1 16.68029,0 z m -16.29008,-0.59955 h 15.89987 a 7.9523015,12.291568 0 0 0 -15.89987,0 z"
     fill="#3f3d56"
     id="path934"
     style="stroke-width:0.241122" />
  <path
     d="m 463.73337,443.02043 a 0.2201842,0.3403303 0 0 0 -0.22017,0.3403 v 3.61513 l -2.27839,-3.02259 a 0.22018226,0.3403273 0 1 0 -0.28684,0.51645 l 2.56523,3.40308 v 2.12387 a 0.22017936,0.34032282 0 1 0 0.44036,0 v -6.63594 a 0.2201842,0.3403303 0 0 0 -0.22019,-0.3403 z"
     fill="#3f3d56"
     id="path936"
     style="stroke-width:0.241122" />
  <path
     d="m 475.67276,414.14724 c -0.0773,0 -0.15257,0 -0.22986,-0.003 a 19.701242,30.451457 0 0 1 -19.47889,-30.43891 c 0,-8.84844 2.35763,-23.00983 5.73332,-34.43813 2.42763,-8.2186 7.47139,-22.0063 13.97543,-22.0063 2.67898,0 5.37663,2.36014 8.01802,7.01498 0.13097,0.22951 0.26225,0.4659 0.39165,0.70816 l 0.0443,0.0831 v 76.13846 l -0.10937,0.0818 c -0.13053,0.0978 -0.26297,0.18955 -0.3954,0.2781 a 19.512452,30.159651 0 0 1 -7.72417,2.57882 c -0.0724,0.003 -0.14978,0.003 -0.2251,0.003 z m 0,-86.28687 c -6.28713,0 -11.23361,13.56798 -13.62258,21.65573 -3.35506,11.35847 -5.69829,25.41755 -5.69829,34.18915 0,16.27021 8.56736,29.6561 19.09804,29.83949 0.0785,0.003 0.15166,0.004 0.22794,0.003 0.0704,0 0.14259,0 0.21294,-0.003 a 19.13381,29.574399 0 0 0 7.57575,-2.5286 c 0.0915,-0.0613 0.18236,-0.12354 0.27235,-0.18824 v -75.54491 c -0.11229,-0.20844 -0.22585,-0.41219 -0.3394,-0.61141 -2.56486,-4.51973 -5.16439,-6.81121 -7.72675,-6.81121 z"
     fill="#3f3d56"
     id="path938"
     style="stroke-width:0.241122" />
  <path
     d="m 475.67194,392.89653 a 0.22262208,0.34409845 0 0 1 -0.16872,-0.11889 l -11.22238,-20.00398 a 0.22317677,0.3449558 0 0 1 0.33721,-0.452 l 11.22239,20.00398 a 0.22319811,0.34498878 0 0 1 -0.1685,0.5709 z"
     fill="#cccccc"
     id="path940"
     style="stroke-width:0.241122" />
  <path
     d="m 475.67182,404.44114 a 0.22313798,0.34489585 0 0 1 -0.15776,-0.58876 l 6.37676,-9.85649 a 0.22311579,0.34486155 0 0 1 0.31553,0.48771 l -6.37675,9.8565 a 0.22232535,0.34363979 0 0 1 -0.15778,0.10104 z"
     fill="#cccccc"
     id="path942"
     style="stroke-width:0.241122" />
  <path
     d="m 493.19564,271.80265 0.14356,0.43767 a 0.85786288,1.3259658 0 0 1 0.097,0.61154 v 11.84107 h 6.78809 v -11.84107 a 0.8578861,1.3260018 0 0 1 0.097,-0.61154 l 0.14356,-0.43767 z m 6.64073,1.04921 v 11.24151 h -6.0123 v -11.24151 a 1.2174782,1.8818096 0 0 0 -0.0349,-0.44967 h 6.08219 a 1.2173813,1.8816596 0 0 0 -0.0349,0.44967 z m 1.89286,-1.04921 0.14357,0.43767 a 0.85786288,1.3259658 0 0 1 0.097,0.61154 v 11.84107 h 6.78809 v -11.84107 a 0.8578861,1.3260018 0 0 1 0.097,-0.61154 l 0.14357,-0.43767 z m 6.64074,1.04921 v 11.24151 h -6.0123 v -11.24151 a 1.2174782,1.8818096 0 0 0 -0.0349,-0.44967 h 6.08219 a 1.2173813,1.8816596 0 0 0 -0.035,0.44967 z m 1.89286,-1.04921 0.14357,0.43767 a 0.85786288,1.3259658 0 0 1 0.097,0.61154 v 11.84107 h 6.78808 v -11.84107 a 0.8578861,1.3260018 0 0 1 0.097,-0.61154 l 0.14356,-0.43767 z m 6.64073,1.04921 v 11.24151 h -6.0123 v -11.24151 a 1.2174782,1.8818096 0 0 0 -0.0349,-0.44967 h 6.08219 a 1.2173813,1.8816596 0 0 0 -0.0349,0.44967 z m 1.89286,-1.04921 0.14357,0.43767 a 0.85786288,1.3259658 0 0 1 0.097,0.61154 v 11.84107 h 6.78809 v -11.84107 a 0.8578861,1.3260018 0 0 1 0.097,-0.61154 l 0.14357,-0.43767 z m 6.64073,1.04921 v 11.24151 h -6.0123 v -11.24151 a 1.2174782,1.8818096 0 0 0 -0.0349,-0.44967 h 6.08219 a 1.2173813,1.8816596 0 0 0 -0.0349,0.44967 z m 1.89287,-1.04921 0.14356,0.43767 a 0.85786288,1.3259658 0 0 1 0.097,0.61154 v 11.84107 h 6.78808 v -11.84107 a 0.8578861,1.3260018 0 0 1 0.097,-0.61154 l 0.14357,-0.43767 z m 6.64073,1.04921 v 11.24151 h -6.0123 v -11.24151 a 1.2174782,1.8818096 0 0 0 -0.0349,-0.44967 h 6.08219 a 1.2173813,1.8816596 0 0 0 -0.0349,0.44967 z m 1.89286,-1.04921 0.14357,0.43767 a 0.85786288,1.3259658 0 0 1 0.097,0.61154 v 11.84107 h 6.78809 v -11.84107 a 0.8578861,1.3260018 0 0 1 0.097,-0.61154 l 0.14356,-0.43767 z m 6.64073,1.04921 v 11.24151 h -6.0123 v -11.24151 a 1.2174782,1.8818096 0 0 0 -0.0349,-0.44967 h 6.0822 a 1.2173813,1.8816596 0 0 0 -0.035,0.44967 z m 1.89287,-1.04921 0.14356,0.43767 a 0.85786288,1.3259658 0 0 1 0.097,0.61154 v 11.84107 h 6.78808 v -11.84107 a 0.8578861,1.3260018 0 0 1 0.097,-0.61154 l 0.14356,-0.43767 z m 6.64073,1.04921 v 11.24151 h -6.01231 v -11.24151 a 1.2174782,1.8818096 0 0 0 -0.0349,-0.44967 h 6.0822 a 1.2173813,1.8816596 0 0 0 -0.0349,0.44967 z m 1.89286,-1.04921 0.14357,0.43767 a 0.85786288,1.3259658 0 0 1 0.097,0.61154 v 11.84107 h 6.78809 v -11.84107 a 0.8578861,1.3260018 0 0 1 0.097,-0.61154 l 0.14356,-0.43767 z m 6.64074,1.04921 v 11.24151 h -6.01231 v -11.24151 a 1.2174782,1.8818096 0 0 0 -0.0349,-0.44967 h 6.08219 a 1.2173813,1.8816596 0 0 0 -0.035,0.44967 z m 1.89286,-1.04921 0.14357,0.43767 a 0.85786288,1.3259658 0 0 1 0.097,0.61154 v 11.84107 h 6.78809 v -11.84107 a 0.8578861,1.3260018 0 0 1 0.097,-0.61154 l 0.14357,-0.43767 z m 6.64073,1.04921 v 11.24151 h -6.01231 v -11.24151 a 1.2174782,1.8818096 0 0 0 -0.0349,-0.44967 h 6.08219 a 1.2173813,1.8816596 0 0 0 -0.035,0.44967 z m -6.64073,-1.04921 0.14357,0.43767 a 0.85786288,1.3259658 0 0 1 0.097,0.61154 v 11.84107 h 6.78809 v -11.84107 a 0.8578861,1.3260018 0 0 1 0.097,-0.61154 l 0.14357,-0.43767 z m 6.64073,1.04921 v 11.24151 h -6.01231 v -11.24151 a 1.2174782,1.8818096 0 0 0 -0.0349,-0.44967 h 6.08219 a 1.2173813,1.8816596 0 0 0 -0.035,0.44967 z m -15.17433,-1.04921 0.14357,0.43767 a 0.85786288,1.3259658 0 0 1 0.097,0.61154 v 11.84107 h 6.78809 v -11.84107 a 0.8578861,1.3260018 0 0 1 0.097,-0.61154 l 0.14356,-0.43767 z m 6.64074,1.04921 v 11.24151 h -6.01231 v -11.24151 a 1.2174782,1.8818096 0 0 0 -0.0349,-0.44967 h 6.08219 a 1.2173813,1.8816596 0 0 0 -0.035,0.44967 z m -15.17433,-1.04921 0.14356,0.43767 a 0.85786288,1.3259658 0 0 1 0.097,0.61154 v 11.84107 h 6.78808 v -11.84107 a 0.8578861,1.3260018 0 0 1 0.097,-0.61154 l 0.14356,-0.43767 z m 6.64073,1.04921 v 11.24151 h -6.01231 v -11.24151 a 1.2174782,1.8818096 0 0 0 -0.0349,-0.44967 h 6.0822 a 1.2173813,1.8816596 0 0 0 -0.0349,0.44967 z m -15.17433,-1.04921 0.14357,0.43767 a 0.85786288,1.3259658 0 0 1 0.097,0.61154 v 11.84107 h 6.78809 v -11.84107 a 0.8578861,1.3260018 0 0 1 0.097,-0.61154 l 0.14356,-0.43767 z m 6.64073,1.04921 v 11.24151 h -6.0123 v -11.24151 a 1.2174782,1.8818096 0 0 0 -0.0349,-0.44967 h 6.0822 a 1.2173813,1.8816596 0 0 0 -0.035,0.44967 z m -15.17432,-1.04921 0.14356,0.43767 a 0.85786288,1.3259658 0 0 1 0.097,0.61154 v 11.84107 h 6.78808 v -11.84107 a 0.8578861,1.3260018 0 0 1 0.097,-0.61154 l 0.14357,-0.43767 z m 6.64073,1.04921 v 11.24151 h -6.0123 v -11.24151 a 1.2174782,1.8818096 0 0 0 -0.0349,-0.44967 h 6.08219 a 1.2173813,1.8816596 0 0 0 -0.0349,0.44967 z m -15.17433,-1.04921 0.14357,0.43767 a 0.85786288,1.3259658 0 0 1 0.097,0.61154 v 11.84107 h 6.78809 v -11.84107 a 0.8578861,1.3260018 0 0 1 0.097,-0.61154 l 0.14357,-0.43767 z m 6.64073,1.04921 v 11.24151 h -6.0123 v -11.24151 a 1.2174782,1.8818096 0 0 0 -0.0349,-0.44967 h 6.08219 a 1.2173813,1.8816596 0 0 0 -0.0349,0.44967 z m -15.17432,-1.04921 0.14357,0.43767 a 0.85786288,1.3259658 0 0 1 0.097,0.61154 v 11.84107 h 6.78808 v -11.84107 a 0.8578861,1.3260018 0 0 1 0.097,-0.61154 l 0.14356,-0.43767 z m 6.64073,1.04921 v 11.24151 h -6.0123 v -11.24151 a 1.2174782,1.8818096 0 0 0 -0.0349,-0.44967 h 6.08219 a 1.2173813,1.8816596 0 0 0 -0.0349,0.44967 z m -15.17433,-1.04921 0.14357,0.43767 a 0.85786288,1.3259658 0 0 1 0.097,0.61154 v 11.84107 h 6.78809 v -11.84107 a 0.8578861,1.3260018 0 0 1 0.097,-0.61154 l 0.14357,-0.43767 z m 6.64074,1.04921 v 11.24151 h -6.0123 v -11.24151 a 1.2174782,1.8818096 0 0 0 -0.0349,-0.44967 h 6.08219 a 1.2173813,1.8816596 0 0 0 -0.035,0.44967 z m -15.17433,-1.04921 0.14356,0.43767 a 0.85786288,1.3259658 0 0 1 0.097,0.61154 v 11.84107 h 6.78809 v -11.84107 a 0.8578861,1.3260018 0 0 1 0.097,-0.61154 l 0.14356,-0.43767 z m 6.64073,1.04921 v 11.24151 h -6.0123 v -11.24151 a 1.2174782,1.8818096 0 0 0 -0.0349,-0.44967 h 6.08219 a 1.2173813,1.8816596 0 0 0 -0.0349,0.44967 z m 61.62803,-1.04921 0.14357,0.43767 a 0.85786288,1.3259658 0 0 1 0.097,0.61154 v 11.84107 h 6.78809 v -11.84107 a 0.8578861,1.3260018 0 0 1 0.097,-0.61154 l 0.14357,-0.43767 z m 6.64073,1.04921 v 11.24151 h -6.01231 v -11.24151 a 1.2174782,1.8818096 0 0 0 -0.0349,-0.44967 h 6.08219 a 1.2173813,1.8816596 0 0 0 -0.035,0.44967 z m -15.17433,-1.04921 0.14357,0.43767 a 0.85786288,1.3259658 0 0 1 0.097,0.61154 v 11.84107 h 6.78809 v -11.84107 a 0.8578861,1.3260018 0 0 1 0.097,-0.61154 l 0.14356,-0.43767 z m 6.64074,1.04921 v 11.24151 h -6.01231 v -11.24151 a 1.2174782,1.8818096 0 0 0 -0.0349,-0.44967 h 6.08219 a 1.2173813,1.8816596 0 0 0 -0.035,0.44967 z m -15.17433,-1.04921 0.14356,0.43767 a 0.85786288,1.3259658 0 0 1 0.097,0.61154 v 11.84107 h 6.78808 v -11.84107 a 0.8578861,1.3260018 0 0 1 0.097,-0.61154 l 0.14356,-0.43767 z m 6.64073,1.04921 v 11.24151 h -6.01231 v -11.24151 a 1.2174782,1.8818096 0 0 0 -0.0349,-0.44967 h 6.0822 a 1.2173813,1.8816596 0 0 0 -0.0349,0.44967 z m -15.17433,-1.04921 0.14357,0.43767 a 0.85786288,1.3259658 0 0 1 0.097,0.61154 v 11.84107 h 6.78809 v -11.84107 a 0.8578861,1.3260018 0 0 1 0.097,-0.61154 l 0.14356,-0.43767 z m 6.64073,1.04921 v 11.24151 h -6.0123 v -11.24151 a 1.2174782,1.8818096 0 0 0 -0.0349,-0.44967 h 6.0822 a 1.2173813,1.8816596 0 0 0 -0.035,0.44967 z m -15.17432,-1.04921 0.14356,0.43767 a 0.85786288,1.3259658 0 0 1 0.097,0.61154 v 11.84107 h 6.78808 v -11.84107 a 0.8578861,1.3260018 0 0 1 0.097,-0.61154 l 0.14357,-0.43767 z m 6.64073,1.04921 v 11.24151 h -6.0123 v -11.24151 a 1.2174782,1.8818096 0 0 0 -0.0349,-0.44967 h 6.08219 a 1.2173813,1.8816596 0 0 0 -0.0349,0.44967 z m -15.17433,-1.04921 0.14357,0.43767 a 0.85786288,1.3259658 0 0 1 0.097,0.61154 v 11.84107 h 6.78809 v -11.84107 a 0.8578861,1.3260018 0 0 1 0.097,-0.61154 l 0.14357,-0.43767 z m 6.64073,1.04921 v 11.24151 h -6.0123 v -11.24151 a 1.2174782,1.8818096 0 0 0 -0.0349,-0.44967 h 6.08219 a 1.2173813,1.8816596 0 0 0 -0.0349,0.44967 z m -15.17432,-1.04921 0.14357,0.43767 a 0.85786288,1.3259658 0 0 1 0.097,0.61154 v 11.84107 h 6.78808 v -11.84107 a 0.8578861,1.3260018 0 0 1 0.097,-0.61154 l 0.14356,-0.43767 z m 6.64073,1.04921 v 11.24151 h -6.0123 v -11.24151 a 1.2174782,1.8818096 0 0 0 -0.0349,-0.44967 h 6.08219 a 1.2173813,1.8816596 0 0 0 -0.0349,0.44967 z m -15.17433,-1.04921 0.14357,0.43767 a 0.85786288,1.3259658 0 0 1 0.097,0.61154 v 11.84107 h 6.78809 v -11.84107 a 0.8578861,1.3260018 0 0 1 0.097,-0.61154 l 0.14357,-0.43767 z m 6.64074,1.04921 v 11.24151 h -6.0123 v -11.24151 a 1.2174782,1.8818096 0 0 0 -0.0349,-0.44967 h 6.08219 a 1.2173813,1.8816596 0 0 0 -0.035,0.44967 z m -15.17433,-1.04921 0.14356,0.43767 a 0.85786288,1.3259658 0 0 1 0.097,0.61154 v 11.84107 h 6.78809 v -11.84107 a 0.8578861,1.3260018 0 0 1 0.097,-0.61154 l 0.14356,-0.43767 z m 6.64073,1.04921 v 11.24151 h -6.0123 v -11.24151 a 1.2174782,1.8818096 0 0 0 -0.0349,-0.44967 h 6.08219 a 1.2173813,1.8816596 0 0 0 -0.0349,0.44967 z m 61.62803,-1.04921 0.14357,0.43767 a 0.85786288,1.3259658 0 0 1 0.097,0.61154 v 11.84107 h 6.78809 v -11.84107 a 0.8578861,1.3260018 0 0 1 0.097,-0.61154 l 0.14357,-0.43767 z m 6.64073,1.04921 v 11.24151 h -6.01231 v -11.24151 a 1.2174782,1.8818096 0 0 0 -0.0349,-0.44967 h 6.08219 a 1.2173813,1.8816596 0 0 0 -0.035,0.44967 z m -15.17433,-1.04921 0.14357,0.43767 a 0.85786288,1.3259658 0 0 1 0.097,0.61154 v 11.84107 h 6.78809 v -11.84107 a 0.8578861,1.3260018 0 0 1 0.097,-0.61154 l 0.14356,-0.43767 z m 6.64074,1.04921 v 11.24151 h -6.01231 v -11.24151 a 1.2174782,1.8818096 0 0 0 -0.0349,-0.44967 h 6.08219 a 1.2173813,1.8816596 0 0 0 -0.035,0.44967 z m -15.17433,-1.04921 0.14356,0.43767 a 0.85786288,1.3259658 0 0 1 0.097,0.61154 v 11.84107 h 6.78808 v -11.84107 a 0.8578861,1.3260018 0 0 1 0.097,-0.61154 l 0.14356,-0.43767 z m 6.64073,1.04921 v 11.24151 h -6.01231 v -11.24151 a 1.2174782,1.8818096 0 0 0 -0.0349,-0.44967 h 6.0822 a 1.2173813,1.8816596 0 0 0 -0.0349,0.44967 z m -15.17433,-1.04921 0.14357,0.43767 a 0.85786288,1.3259658 0 0 1 0.097,0.61154 v 11.84107 h 6.78809 v -11.84107 a 0.8578861,1.3260018 0 0 1 0.097,-0.61154 l 0.14356,-0.43767 z m 6.64073,1.04921 v 11.24151 h -6.0123 v -11.24151 a 1.2174782,1.8818096 0 0 0 -0.0349,-0.44967 h 6.0822 a 1.2173813,1.8816596 0 0 0 -0.035,0.44967 z m -15.17432,-1.04921 0.14356,0.43767 a 0.85786288,1.3259658 0 0 1 0.097,0.61154 v 11.84107 h 6.78808 v -11.84107 a 0.8578861,1.3260018 0 0 1 0.097,-0.61154 l 0.14357,-0.43767 z m 6.64073,1.04921 v 11.24151 h -6.0123 v -11.24151 a 1.2174782,1.8818096 0 0 0 -0.0349,-0.44967 h 6.08219 a 1.2173813,1.8816596 0 0 0 -0.0349,0.44967 z m -15.17433,-1.04921 0.14357,0.43767 a 0.85786288,1.3259658 0 0 1 0.097,0.61154 v 11.84107 h 6.78809 v -11.84107 a 0.8578861,1.3260018 0 0 1 0.097,-0.61154 l 0.14357,-0.43767 z m 6.64073,1.04921 v 11.24151 h -6.0123 v -11.24151 a 1.2174782,1.8818096 0 0 0 -0.0349,-0.44967 h 6.08219 a 1.2173813,1.8816596 0 0 0 -0.0349,0.44967 z m -15.17432,-1.04921 0.14357,0.43767 a 0.85786288,1.3259658 0 0 1 0.097,0.61154 v 11.84107 h 6.78808 v -11.84107 a 0.8578861,1.3260018 0 0 1 0.097,-0.61154 l 0.14356,-0.43767 z m 6.64073,1.04921 v 11.24151 h -6.0123 v -11.24151 a 1.2174782,1.8818096 0 0 0 -0.0349,-0.44967 h 6.08219 a 1.2173813,1.8816596 0 0 0 -0.0349,0.44967 z m -15.17433,-1.04921 0.14357,0.43767 a 0.85786288,1.3259658 0 0 1 0.097,0.61154 v 11.84107 h 6.78809 v -11.84107 a 0.8578861,1.3260018 0 0 1 0.097,-0.61154 l 0.14357,-0.43767 z m 6.64074,1.04921 v 11.24151 h -6.0123 v -11.24151 a 1.2174782,1.8818096 0 0 0 -0.0349,-0.44967 h 6.08219 a 1.2173813,1.8816596 0 0 0 -0.035,0.44967 z m -15.17433,-1.04921 0.14356,0.43767 a 0.85786288,1.3259658 0 0 1 0.097,0.61154 v 11.84107 h 6.78809 v -11.84107 a 0.8578861,1.3260018 0 0 1 0.097,-0.61154 l 0.14356,-0.43767 z m 6.64073,1.04921 v 11.24151 h -6.0123 v -11.24151 a 1.2174782,1.8818096 0 0 0 -0.0349,-0.44967 h 6.08219 a 1.2173813,1.8816596 0 0 0 -0.0349,0.44967 z m 61.62803,-1.04921 0.14357,0.43767 a 0.85786288,1.3259658 0 0 1 0.097,0.61154 v 11.84107 h 6.78809 v -11.84107 a 0.8578861,1.3260018 0 0 1 0.097,-0.61154 l 0.14357,-0.43767 z m 6.64073,1.04921 v 11.24151 h -6.01231 v -11.24151 a 1.2174782,1.8818096 0 0 0 -0.0349,-0.44967 h 6.08219 a 1.2173813,1.8816596 0 0 0 -0.035,0.44967 z m -15.17433,-1.04921 0.14357,0.43767 a 0.85786288,1.3259658 0 0 1 0.097,0.61154 v 11.84107 h 6.78809 v -11.84107 a 0.8578861,1.3260018 0 0 1 0.097,-0.61154 l 0.14356,-0.43767 z m 6.64074,1.04921 v 11.24151 h -6.01231 v -11.24151 a 1.2174782,1.8818096 0 0 0 -0.0349,-0.44967 h 6.08219 a 1.2173813,1.8816596 0 0 0 -0.035,0.44967 z m -15.17433,-1.04921 0.14356,0.43767 a 0.85786288,1.3259658 0 0 1 0.097,0.61154 v 11.84107 h 6.78808 v -11.84107 a 0.8578861,1.3260018 0 0 1 0.097,-0.61154 l 0.14356,-0.43767 z m 6.64073,1.04921 v 11.24151 h -6.01231 v -11.24151 a 1.2174782,1.8818096 0 0 0 -0.0349,-0.44967 h 6.0822 a 1.2173813,1.8816596 0 0 0 -0.0349,0.44967 z m -15.17433,-1.04921 0.14357,0.43767 a 0.85786288,1.3259658 0 0 1 0.097,0.61154 v 11.84107 h 6.78809 v -11.84107 a 0.8578861,1.3260018 0 0 1 0.097,-0.61154 l 0.14356,-0.43767 z m 6.64073,1.04921 v 11.24151 h -6.0123 v -11.24151 a 1.2174782,1.8818096 0 0 0 -0.0349,-0.44967 h 6.0822 a 1.2173813,1.8816596 0 0 0 -0.035,0.44967 z m -15.17432,-1.04921 0.14356,0.43767 a 0.85786288,1.3259658 0 0 1 0.097,0.61154 v 11.84107 h 6.78808 v -11.84107 a 0.8578861,1.3260018 0 0 1 0.097,-0.61154 l 0.14357,-0.43767 z m 6.64073,1.04921 v 11.24151 h -6.0123 v -11.24151 a 1.2174782,1.8818096 0 0 0 -0.0349,-0.44967 h 6.08219 a 1.2173813,1.8816596 0 0 0 -0.0349,0.44967 z m -15.17433,-1.04921 0.14357,0.43767 a 0.85786288,1.3259658 0 0 1 0.097,0.61154 v 11.84107 h 6.78809 v -11.84107 a 0.8578861,1.3260018 0 0 1 0.097,-0.61154 l 0.14357,-0.43767 z m 6.64073,1.04921 v 11.24151 h -6.0123 v -11.24151 a 1.2174782,1.8818096 0 0 0 -0.0349,-0.44967 h 6.08219 a 1.2173813,1.8816596 0 0 0 -0.0349,0.44967 z m -15.17432,-1.04921 0.14357,0.43767 a 0.85786288,1.3259658 0 0 1 0.097,0.61154 v 11.84107 h 6.78808 v -11.84107 a 0.8578861,1.3260018 0 0 1 0.097,-0.61154 l 0.14356,-0.43767 z m 6.64073,1.04921 v 11.24151 h -6.0123 v -11.24151 a 1.2174782,1.8818096 0 0 0 -0.0349,-0.44967 h 6.08219 a 1.2173813,1.8816596 0 0 0 -0.0349,0.44967 z m -15.17433,-1.04921 0.14357,0.43767 a 0.85786288,1.3259658 0 0 1 0.097,0.61154 v 11.84107 h 6.78809 v -11.84107 a 0.8578861,1.3260018 0 0 1 0.097,-0.61154 l 0.14357,-0.43767 z m 6.64074,1.04921 v 11.24151 h -6.0123 v -11.24151 a 1.2174782,1.8818096 0 0 0 -0.0349,-0.44967 h 6.08219 a 1.2173813,1.8816596 0 0 0 -0.035,0.44967 z m -15.17433,-1.04921 0.14356,0.43767 a 0.85786288,1.3259658 0 0 1 0.097,0.61154 v 11.84107 h 6.78809 v -11.84107 a 0.8578861,1.3260018 0 0 1 0.097,-0.61154 l 0.14356,-0.43767 z m 6.64073,1.04921 v 11.24151 h -6.0123 v -11.24151 a 1.2174782,1.8818096 0 0 0 -0.0349,-0.44967 h 6.08219 a 1.2173813,1.8816596 0 0 0 -0.0349,0.44967 z m 61.62803,-1.04921 0.14357,0.43767 a 0.85786288,1.3259658 0 0 1 0.097,0.61154 v 11.84107 h 6.78809 v -11.84107 a 0.8578861,1.3260018 0 0 1 0.097,-0.61154 l 0.14357,-0.43767 z m 6.64073,1.04921 v 11.24151 h -6.01231 v -11.24151 a 1.2174782,1.8818096 0 0 0 -0.0349,-0.44967 h 6.08219 a 1.2173813,1.8816596 0 0 0 -0.035,0.44967 z m -15.03076,-0.61154 a 0.85786288,1.3259658 0 0 1 0.097,0.61154 v 11.84107 h 6.78809 v -11.84107 a 0.8578861,1.3260018 0 0 1 0.097,-0.61154 l 0.14356,-0.43767 h -7.26916 z m 6.53211,0.16187 a 1.2173813,1.8816596 0 0 0 -0.035,0.44967 v 11.24151 h -6.01231 v -11.24151 a 1.2174782,1.8818096 0 0 0 -0.0349,-0.44967 z m -15.06571,-0.16187 a 0.85786288,1.3259658 0 0 1 0.097,0.61154 v 11.84107 h 6.78808 v -11.84107 a 0.8578861,1.3260018 0 0 1 0.097,-0.61154 l 0.14356,-0.43767 h -7.26916 z m 6.53212,0.16187 a 1.2173813,1.8816596 0 0 0 -0.0349,0.44967 v 11.24151 h -6.01233 v -11.24151 a 1.2174782,1.8818096 0 0 0 -0.0349,-0.44967 z m -15.06571,-0.16187 a 0.85786288,1.3259658 0 0 1 0.097,0.61154 v 11.84107 h 6.78809 v -11.84107 a 0.8578861,1.3260018 0 0 1 0.097,-0.61154 l 0.14356,-0.43767 h -7.26916 z m 6.53212,0.16187 a 1.2173813,1.8816596 0 0 0 -0.035,0.44967 v 11.24151 h -6.0123 v -11.24151 a 1.2174782,1.8818096 0 0 0 -0.0349,-0.44967 z m -15.06572,-0.16187 a 0.85786288,1.3259658 0 0 1 0.097,0.61154 v 11.84107 h 6.78808 v -11.84107 a 0.8578861,1.3260018 0 0 1 0.097,-0.61154 l 0.14357,-0.43767 h -7.26916 z m 6.53212,0.16187 a 1.2173813,1.8816596 0 0 0 -0.0349,0.44967 v 11.24151 h -6.01231 v -11.24151 a 1.2174782,1.8818096 0 0 0 -0.0349,-0.44967 z m -15.06571,-0.16187 a 0.85786288,1.3259658 0 0 1 0.097,0.61154 v 11.84107 h 6.78809 v -11.84107 a 0.8578861,1.3260018 0 0 1 0.097,-0.61154 l 0.14357,-0.43767 h -7.26917 z m 6.53211,0.16187 a 1.2173813,1.8816596 0 0 0 -0.0349,0.44967 v 11.24151 h -6.01231 v -11.24151 a 1.2174782,1.8818096 0 0 0 -0.0349,-0.44967 z m -15.0657,-0.16187 a 0.85786288,1.3259658 0 0 1 0.097,0.61154 v 11.84107 h 6.78808 v -11.84107 a 0.8578861,1.3260018 0 0 1 0.097,-0.61154 l 0.14356,-0.43767 h -7.26916 z m 6.53211,0.16187 a 1.2173813,1.8816596 0 0 0 -0.0349,0.44967 v 11.24151 h -6.01231 v -11.24151 a 1.2174782,1.8818096 0 0 0 -0.0349,-0.44967 z m -15.06571,-0.16187 a 0.85786288,1.3259658 0 0 1 0.097,0.61154 v 11.84107 h 6.78809 v -11.84107 a 0.8578861,1.3260018 0 0 1 0.097,-0.61154 l 0.14357,-0.43767 h -7.26917 z m 6.53212,0.16187 a 1.2173813,1.8816596 0 0 0 -0.035,0.44967 v 11.24151 h -6.0123 v -11.24151 a 1.2174782,1.8818096 0 0 0 -0.0349,-0.44967 z m -15.06572,-0.16187 a 0.85786288,1.3259658 0 0 1 0.097,0.61154 v 11.84107 h 6.78809 v -11.84107 a 0.8578861,1.3260018 0 0 1 0.097,-0.61154 l 0.14356,-0.43767 h -7.26917 z m 6.53212,0.16187 a 1.2173813,1.8816596 0 0 0 -0.0349,0.44967 v 11.24151 h -6.01231 v -11.24151 a 1.2174782,1.8818096 0 0 0 -0.0349,-0.44967 z m 61.73665,-0.16187 a 0.85786288,1.3259658 0 0 1 0.097,0.61154 v 11.84107 h 6.78809 v -11.84107 a 0.8578861,1.3260018 0 0 1 0.097,-0.61154 l 0.14357,-0.43767 h -7.26916 z m 6.53211,0.16187 a 1.2173813,1.8816596 0 0 0 -0.035,0.44967 v 11.24151 h -6.01231 v -11.24151 a 1.2174782,1.8818096 0 0 0 -0.0349,-0.44967 z m -15.06571,-0.16187 a 0.85786288,1.3259658 0 0 1 0.097,0.61154 v 11.84107 h 6.78809 v -11.84107 a 0.8578861,1.3260018 0 0 1 0.097,-0.61154 l 0.14356,-0.43767 h -7.26916 z m 6.53211,0.16187 a 1.2173813,1.8816596 0 0 0 -0.035,0.44967 v 11.24151 h -6.01231 v -11.24151 a 1.2174782,1.8818096 0 0 0 -0.0349,-0.44967 z m -15.06571,-0.16187 a 0.85786288,1.3259658 0 0 1 0.097,0.61154 v 11.84107 h 6.78808 v -11.84107 a 0.8578861,1.3260018 0 0 1 0.097,-0.61154 l 0.14356,-0.43767 h -7.26916 z m 6.53212,0.16187 a 1.2173813,1.8816596 0 0 0 -0.0349,0.44967 v 11.24151 h -6.01233 v -11.24151 a 1.2174782,1.8818096 0 0 0 -0.0349,-0.44967 z m -15.06571,-0.16187 a 0.85786288,1.3259658 0 0 1 0.097,0.61154 v 11.84107 h 6.78809 v -11.84107 a 0.8578861,1.3260018 0 0 1 0.097,-0.61154 l 0.14356,-0.43767 h -7.26916 z m 6.53212,0.16187 a 1.2173813,1.8816596 0 0 0 -0.035,0.44967 v 11.24151 h -6.0123 v -11.24151 a 1.2174782,1.8818096 0 0 0 -0.0349,-0.44967 z m -15.06572,-0.16187 a 0.85786288,1.3259658 0 0 1 0.097,0.61154 v 11.84107 h 6.78808 v -11.84107 a 0.8578861,1.3260018 0 0 1 0.097,-0.61154 l 0.14357,-0.43767 h -7.26916 z m 6.53212,0.16187 a 1.2173813,1.8816596 0 0 0 -0.0349,0.44967 v 11.24151 h -6.01231 v -11.24151 a 1.2174782,1.8818096 0 0 0 -0.0349,-0.44967 z m -15.06571,-0.16187 a 0.85786288,1.3259658 0 0 1 0.097,0.61154 v 11.84107 h 6.78809 v -11.84107 a 0.8578861,1.3260018 0 0 1 0.097,-0.61154 l 0.14357,-0.43767 h -7.26917 z m 6.53211,0.16187 a 1.2173813,1.8816596 0 0 0 -0.0349,0.44967 v 11.24151 h -6.01231 v -11.24151 a 1.2174782,1.8818096 0 0 0 -0.0349,-0.44967 z m -15.0657,-0.16187 a 0.85786288,1.3259658 0 0 1 0.097,0.61154 v 11.84107 h 6.78808 v -11.84107 a 0.8578861,1.3260018 0 0 1 0.097,-0.61154 l 0.14356,-0.43767 h -7.26916 z m 6.53211,0.16187 a 1.2173813,1.8816596 0 0 0 -0.0349,0.44967 v 11.24151 h -6.01231 v -11.24151 a 1.2174782,1.8818096 0 0 0 -0.0349,-0.44967 z m -15.06571,-0.16187 a 0.85786288,1.3259658 0 0 1 0.097,0.61154 v 11.84107 h 6.78809 v -11.84107 a 0.8578861,1.3260018 0 0 1 0.097,-0.61154 l 0.14357,-0.43767 h -7.26917 z m 6.53212,0.16187 a 1.2173813,1.8816596 0 0 0 -0.035,0.44967 v 11.24151 h -6.0123 v -11.24151 a 1.2174782,1.8818096 0 0 0 -0.0349,-0.44967 z m -15.06572,-0.16187 a 0.85786288,1.3259658 0 0 1 0.097,0.61154 v 11.84107 h 6.78809 v -11.84107 a 0.8578861,1.3260018 0 0 1 0.097,-0.61154 l 0.14356,-0.43767 h -7.26917 z m 6.53212,0.16187 a 1.2173813,1.8816596 0 0 0 -0.0349,0.44967 v 11.24151 h -6.01231 v -11.24151 a 1.2174782,1.8818096 0 0 0 -0.0349,-0.44967 z m 76.37951,14.08938 h -2.31181 a 2.139411,3.3068057 0 0 0 -2.05196,-2.3982 h -1.26064 v -11.24151 a 1.2124686,1.8740664 0 0 0 -0.0873,-0.70447 1.1615696,1.7953937 0 0 0 -0.59149,-3.34248 h -77.96602 a 1.1615677,1.7953907 0 0 0 -0.5915,3.34248 1.2124706,1.8740694 0 0 0 -0.0873,0.70447 v 11.24151 h -1.26064 a 2.139411,3.3068057 0 0 0 -2.05195,2.3982 h -2.50576 a 1.7481398,2.7020328 0 0 0 -1.74551,2.69797 v 158.2806 a 1.7493054,2.7038345 0 0 0 1.74551,2.69797 h 90.76641 a 1.7480467,2.701889 0 0 0 1.74551,-2.69797 v -158.2806 a 1.7481398,2.7020328 0 0 0 -1.74551,-2.69797 z m 1.35762,160.97857 a 1.3585871,2.099916 0 0 1 -0.88629,1.96652 1.30391,2.0154038 0 0 1 -0.47133,0.1319 h -90.76641 a 1.303908,2.0154008 0 0 1 -0.47132,-0.1319 1.3585871,2.099916 0 0 1 -0.8863,-1.96652 v -158.2806 a 1.3591281,2.1007524 0 0 1 1.35762,-2.09842 h 2.81609 l 0.0311,-0.23982 a 1.7516793,2.7075037 0 0 1 1.71056,-2.15837 h 1.64854 v -11.84107 a 0.87160581,1.3472079 0 0 1 0.12415,-0.69248 l 0.12017,-0.30876 -0.21913,-0.12592 a 0.77372554,1.1959179 0 0 1 0.26573,-2.32025 h 77.96602 a 0.77372554,1.1959179 0 0 1 0.26573,2.32025 l -0.21914,0.12592 0.12018,0.30876 a 0.8706904,1.3457929 0 0 1 0.12414,0.69248 v 11.84107 h 1.64854 a 1.7516017,2.7073839 0 0 1 1.71057,2.15837 l 0.0311,0.23982 h 2.62214 a 1.3591262,2.1007494 0 0 1 1.35762,2.09842 z m -84.41281,-175.66749 0.14356,0.43767 a 0.85786288,1.3259658 0 0 1 0.097,0.61154 v 11.84107 h 6.78809 v -11.84107 a 0.8578861,1.3260018 0 0 1 0.097,-0.61154 l 0.14356,-0.43767 z m 6.64073,1.04921 v 11.24151 h -6.0123 v -11.24151 a 1.2174782,1.8818096 0 0 0 -0.0349,-0.44967 h 6.08219 a 1.2173813,1.8816596 0 0 0 -0.0349,0.44967 z m 1.89286,-1.04921 0.14357,0.43767 a 0.85786288,1.3259658 0 0 1 0.097,0.61154 v 11.84107 h 6.78809 v -11.84107 a 0.8578861,1.3260018 0 0 1 0.097,-0.61154 l 0.14357,-0.43767 z m 6.64074,1.04921 v 11.24151 h -6.0123 v -11.24151 a 1.2174782,1.8818096 0 0 0 -0.0349,-0.44967 h 6.08219 a 1.2173813,1.8816596 0 0 0 -0.035,0.44967 z m 1.89286,-1.04921 0.14357,0.43767 a 0.85786288,1.3259658 0 0 1 0.097,0.61154 v 11.84107 h 6.78808 v -11.84107 a 0.8578861,1.3260018 0 0 1 0.097,-0.61154 l 0.14356,-0.43767 z m 6.64073,1.04921 v 11.24151 h -6.0123 v -11.24151 a 1.2174782,1.8818096 0 0 0 -0.0349,-0.44967 h 6.08219 a 1.2173813,1.8816596 0 0 0 -0.0349,0.44967 z m 1.89286,-1.04921 0.14357,0.43767 a 0.85786288,1.3259658 0 0 1 0.097,0.61154 v 11.84107 h 6.78809 v -11.84107 a 0.8578861,1.3260018 0 0 1 0.097,-0.61154 l 0.14357,-0.43767 z m 6.64073,1.04921 v 11.24151 h -6.0123 v -11.24151 a 1.2174782,1.8818096 0 0 0 -0.0349,-0.44967 h 6.08219 a 1.2173813,1.8816596 0 0 0 -0.0349,0.44967 z m 1.89287,-1.04921 0.14356,0.43767 a 0.85786288,1.3259658 0 0 1 0.097,0.61154 v 11.84107 h 6.78808 v -11.84107 a 0.8578861,1.3260018 0 0 1 0.097,-0.61154 l 0.14357,-0.43767 z m 6.64073,1.04921 v 11.24151 h -6.0123 v -11.24151 a 1.2174782,1.8818096 0 0 0 -0.0349,-0.44967 h 6.08219 a 1.2173813,1.8816596 0 0 0 -0.0349,0.44967 z m 1.89286,-1.04921 0.14357,0.43767 a 0.85786288,1.3259658 0 0 1 0.097,0.61154 v 11.84107 h 6.78809 v -11.84107 a 0.8578861,1.3260018 0 0 1 0.097,-0.61154 l 0.14356,-0.43767 z m 6.64073,1.04921 v 11.24151 h -6.0123 v -11.24151 a 1.2174782,1.8818096 0 0 0 -0.0349,-0.44967 h 6.0822 a 1.2173813,1.8816596 0 0 0 -0.035,0.44967 z m 1.89287,-1.04921 0.14356,0.43767 a 0.85786288,1.3259658 0 0 1 0.097,0.61154 v 11.84107 h 6.78808 v -11.84107 a 0.8578861,1.3260018 0 0 1 0.097,-0.61154 l 0.14356,-0.43767 z m 6.64073,1.04921 v 11.24151 h -6.01231 v -11.24151 a 1.2174782,1.8818096 0 0 0 -0.0349,-0.44967 h 6.0822 a 1.2173813,1.8816596 0 0 0 -0.0349,0.44967 z m 1.89286,-1.04921 0.14357,0.43767 a 0.85786288,1.3259658 0 0 1 0.097,0.61154 v 11.84107 h 6.78809 v -11.84107 a 0.8578861,1.3260018 0 0 1 0.097,-0.61154 l 0.14356,-0.43767 z m 6.64074,1.04921 v 11.24151 h -6.01231 v -11.24151 a 1.2174782,1.8818096 0 0 0 -0.0349,-0.44967 h 6.08219 a 1.2173813,1.8816596 0 0 0 -0.035,0.44967 z m 1.89286,-1.04921 0.14357,0.43767 a 0.85786288,1.3259658 0 0 1 0.097,0.61154 v 11.84107 h 6.78809 v -11.84107 a 0.8578861,1.3260018 0 0 1 0.097,-0.61154 l 0.14357,-0.43767 z m 6.64073,1.04921 v 11.24151 h -6.01231 v -11.24151 a 1.2174782,1.8818096 0 0 0 -0.0349,-0.44967 h 6.08219 a 1.2173813,1.8816596 0 0 0 -0.035,0.44967 z m -74.90949,-1.04921 0.14356,0.43767 a 0.85786288,1.3259658 0 0 1 0.097,0.61154 v 11.84107 h 6.78809 v -11.84107 a 0.8578861,1.3260018 0 0 1 0.097,-0.61154 l 0.14356,-0.43767 z m 6.64073,1.04921 v 11.24151 h -6.0123 v -11.24151 a 1.2174782,1.8818096 0 0 0 -0.0349,-0.44967 h 6.08219 a 1.2173813,1.8816596 0 0 0 -0.0349,0.44967 z m 1.89286,-1.04921 0.14357,0.43767 a 0.85786288,1.3259658 0 0 1 0.097,0.61154 v 11.84107 h 6.78809 v -11.84107 a 0.8578861,1.3260018 0 0 1 0.097,-0.61154 l 0.14357,-0.43767 z m 6.64074,1.04921 v 11.24151 h -6.0123 v -11.24151 a 1.2174782,1.8818096 0 0 0 -0.0349,-0.44967 h 6.08219 a 1.2173813,1.8816596 0 0 0 -0.035,0.44967 z m 1.89286,-1.04921 0.14357,0.43767 a 0.85786288,1.3259658 0 0 1 0.097,0.61154 v 11.84107 h 6.78808 v -11.84107 a 0.8578861,1.3260018 0 0 1 0.097,-0.61154 l 0.14356,-0.43767 z m 6.64073,1.04921 v 11.24151 h -6.0123 v -11.24151 a 1.2174782,1.8818096 0 0 0 -0.0349,-0.44967 h 6.08219 a 1.2173813,1.8816596 0 0 0 -0.0349,0.44967 z m 1.89286,-1.04921 0.14357,0.43767 a 0.85786288,1.3259658 0 0 1 0.097,0.61154 v 11.84107 h 6.78809 v -11.84107 a 0.8578861,1.3260018 0 0 1 0.097,-0.61154 l 0.14357,-0.43767 z m 6.64073,1.04921 v 11.24151 h -6.0123 v -11.24151 a 1.2174782,1.8818096 0 0 0 -0.0349,-0.44967 h 6.08219 a 1.2173813,1.8816596 0 0 0 -0.0349,0.44967 z m 1.89287,-1.04921 0.14356,0.43767 a 0.85786288,1.3259658 0 0 1 0.097,0.61154 v 11.84107 h 6.78808 v -11.84107 a 0.8578861,1.3260018 0 0 1 0.097,-0.61154 l 0.14357,-0.43767 z m 6.64073,1.04921 v 11.24151 h -6.0123 v -11.24151 a 1.2174782,1.8818096 0 0 0 -0.0349,-0.44967 h 6.08219 a 1.2173813,1.8816596 0 0 0 -0.0349,0.44967 z m 1.89286,-1.04921 0.14357,0.43767 a 0.85786288,1.3259658 0 0 1 0.097,0.61154 v 11.84107 h 6.78809 v -11.84107 a 0.8578861,1.3260018 0 0 1 0.097,-0.61154 l 0.14356,-0.43767 z m 6.64073,1.04921 v 11.24151 h -6.0123 v -11.24151 a 1.2174782,1.8818096 0 0 0 -0.0349,-0.44967 h 6.0822 a 1.2173813,1.8816596 0 0 0 -0.035,0.44967 z m 1.89287,-1.04921 0.14356,0.43767 a 0.85786288,1.3259658 0 0 1 0.097,0.61154 v 11.84107 h 6.78808 v -11.84107 a 0.8578861,1.3260018 0 0 1 0.097,-0.61154 l 0.14356,-0.43767 z m 6.64073,1.04921 v 11.24151 h -6.01231 v -11.24151 a 1.2174782,1.8818096 0 0 0 -0.0349,-0.44967 h 6.0822 a 1.2173813,1.8816596 0 0 0 -0.0349,0.44967 z m 1.89286,-1.04921 0.14357,0.43767 a 0.85786288,1.3259658 0 0 1 0.097,0.61154 v 11.84107 h 6.78809 v -11.84107 a 0.8578861,1.3260018 0 0 1 0.097,-0.61154 l 0.14356,-0.43767 z m 6.64074,1.04921 v 11.24151 h -6.01231 v -11.24151 a 1.2174782,1.8818096 0 0 0 -0.0349,-0.44967 h 6.08219 a 1.2173813,1.8816596 0 0 0 -0.035,0.44967 z m 1.89286,-1.04921 0.14357,0.43767 a 0.85786288,1.3259658 0 0 1 0.097,0.61154 v 11.84107 h 6.78809 v -11.84107 a 0.8578861,1.3260018 0 0 1 0.097,-0.61154 l 0.14357,-0.43767 z m 6.64073,1.04921 v 11.24151 h -6.01231 v -11.24151 a 1.2174782,1.8818096 0 0 0 -0.0349,-0.44967 h 6.08219 a 1.2173813,1.8816596 0 0 0 -0.035,0.44967 z m -74.90949,-1.04921 0.14356,0.43767 a 0.85786288,1.3259658 0 0 1 0.097,0.61154 v 11.84107 h 6.78809 v -11.84107 a 0.8578861,1.3260018 0 0 1 0.097,-0.61154 l 0.14356,-0.43767 z m 6.64073,1.04921 v 11.24151 h -6.0123 v -11.24151 a 1.2174782,1.8818096 0 0 0 -0.0349,-0.44967 h 6.08219 a 1.2173813,1.8816596 0 0 0 -0.0349,0.44967 z m 1.89286,-1.04921 0.14357,0.43767 a 0.85786288,1.3259658 0 0 1 0.097,0.61154 v 11.84107 h 6.78809 v -11.84107 a 0.8578861,1.3260018 0 0 1 0.097,-0.61154 l 0.14357,-0.43767 z m 6.64074,1.04921 v 11.24151 h -6.0123 v -11.24151 a 1.2174782,1.8818096 0 0 0 -0.0349,-0.44967 h 6.08219 a 1.2173813,1.8816596 0 0 0 -0.035,0.44967 z m 1.89286,-1.04921 0.14357,0.43767 a 0.85786288,1.3259658 0 0 1 0.097,0.61154 v 11.84107 h 6.78808 v -11.84107 a 0.8578861,1.3260018 0 0 1 0.097,-0.61154 l 0.14356,-0.43767 z m 6.64073,1.04921 v 11.24151 h -6.0123 v -11.24151 a 1.2174782,1.8818096 0 0 0 -0.0349,-0.44967 h 6.08219 a 1.2173813,1.8816596 0 0 0 -0.0349,0.44967 z m 1.89286,-1.04921 0.14357,0.43767 a 0.85786288,1.3259658 0 0 1 0.097,0.61154 v 11.84107 h 6.78809 v -11.84107 a 0.8578861,1.3260018 0 0 1 0.097,-0.61154 l 0.14357,-0.43767 z m 6.64073,1.04921 v 11.24151 h -6.0123 v -11.24151 a 1.2174782,1.8818096 0 0 0 -0.0349,-0.44967 h 6.08219 a 1.2173813,1.8816596 0 0 0 -0.0349,0.44967 z m 1.89287,-1.04921 0.14356,0.43767 a 0.85786288,1.3259658 0 0 1 0.097,0.61154 v 11.84107 h 6.78808 v -11.84107 a 0.8578861,1.3260018 0 0 1 0.097,-0.61154 l 0.14357,-0.43767 z m 6.64073,1.04921 v 11.24151 h -6.0123 v -11.24151 a 1.2174782,1.8818096 0 0 0 -0.0349,-0.44967 h 6.08219 a 1.2173813,1.8816596 0 0 0 -0.0349,0.44967 z m 1.89286,-1.04921 0.14357,0.43767 a 0.85786288,1.3259658 0 0 1 0.097,0.61154 v 11.84107 h 6.78809 v -11.84107 a 0.8578861,1.3260018 0 0 1 0.097,-0.61154 l 0.14356,-0.43767 z m 6.64073,1.04921 v 11.24151 h -6.0123 v -11.24151 a 1.2174782,1.8818096 0 0 0 -0.0349,-0.44967 h 6.0822 a 1.2173813,1.8816596 0 0 0 -0.035,0.44967 z m 1.89287,-1.04921 0.14356,0.43767 a 0.85786288,1.3259658 0 0 1 0.097,0.61154 v 11.84107 h 6.78808 v -11.84107 a 0.8578861,1.3260018 0 0 1 0.097,-0.61154 l 0.14356,-0.43767 z m 6.64073,1.04921 v 11.24151 h -6.01231 v -11.24151 a 1.2174782,1.8818096 0 0 0 -0.0349,-0.44967 h 6.0822 a 1.2173813,1.8816596 0 0 0 -0.0349,0.44967 z m 1.89286,-1.04921 0.14357,0.43767 a 0.85786288,1.3259658 0 0 1 0.097,0.61154 v 11.84107 h 6.78809 v -11.84107 a 0.8578861,1.3260018 0 0 1 0.097,-0.61154 l 0.14356,-0.43767 z m 6.64074,1.04921 v 11.24151 h -6.01231 v -11.24151 a 1.2174782,1.8818096 0 0 0 -0.0349,-0.44967 h 6.08219 a 1.2173813,1.8816596 0 0 0 -0.035,0.44967 z m 1.89286,-1.04921 0.14357,0.43767 a 0.85786288,1.3259658 0 0 1 0.097,0.61154 v 11.84107 h 6.78809 v -11.84107 a 0.8578861,1.3260018 0 0 1 0.097,-0.61154 l 0.14357,-0.43767 z m 6.64073,1.04921 v 11.24151 h -6.01231 v -11.24151 a 1.2174782,1.8818096 0 0 0 -0.0349,-0.44967 h 6.08219 a 1.2173813,1.8816596 0 0 0 -0.035,0.44967 z m -74.90949,-1.04921 0.14356,0.43767 a 0.85786288,1.3259658 0 0 1 0.097,0.61154 v 11.84107 h 6.78809 v -11.84107 a 0.8578861,1.3260018 0 0 1 0.097,-0.61154 l 0.14356,-0.43767 z m 6.64073,1.04921 v 11.24151 h -6.0123 v -11.24151 a 1.2174782,1.8818096 0 0 0 -0.0349,-0.44967 h 6.08219 a 1.2173813,1.8816596 0 0 0 -0.0349,0.44967 z m 1.89286,-1.04921 0.14357,0.43767 a 0.85786288,1.3259658 0 0 1 0.097,0.61154 v 11.84107 h 6.78809 v -11.84107 a 0.8578861,1.3260018 0 0 1 0.097,-0.61154 l 0.14357,-0.43767 z m 6.64074,1.04921 v 11.24151 h -6.0123 v -11.24151 a 1.2174782,1.8818096 0 0 0 -0.0349,-0.44967 h 6.08219 a 1.2173813,1.8816596 0 0 0 -0.035,0.44967 z m 1.89286,-1.04921 0.14357,0.43767 a 0.85786288,1.3259658 0 0 1 0.097,0.61154 v 11.84107 h 6.78808 v -11.84107 a 0.8578861,1.3260018 0 0 1 0.097,-0.61154 l 0.14356,-0.43767 z m 6.64073,1.04921 v 11.24151 h -6.0123 v -11.24151 a 1.2174782,1.8818096 0 0 0 -0.0349,-0.44967 h 6.08219 a 1.2173813,1.8816596 0 0 0 -0.0349,0.44967 z m 1.89286,-1.04921 0.14357,0.43767 a 0.85786288,1.3259658 0 0 1 0.097,0.61154 v 11.84107 h 6.78809 v -11.84107 a 0.8578861,1.3260018 0 0 1 0.097,-0.61154 l 0.14357,-0.43767 z m 6.64073,1.04921 v 11.24151 h -6.0123 v -11.24151 a 1.2174782,1.8818096 0 0 0 -0.0349,-0.44967 h 6.08219 a 1.2173813,1.8816596 0 0 0 -0.0349,0.44967 z m 1.89287,-1.04921 0.14356,0.43767 a 0.85786288,1.3259658 0 0 1 0.097,0.61154 v 11.84107 h 6.78808 v -11.84107 a 0.8578861,1.3260018 0 0 1 0.097,-0.61154 l 0.14357,-0.43767 z m 6.64073,1.04921 v 11.24151 h -6.0123 v -11.24151 a 1.2174782,1.8818096 0 0 0 -0.0349,-0.44967 h 6.08219 a 1.2173813,1.8816596 0 0 0 -0.0349,0.44967 z m 1.89286,-1.04921 0.14357,0.43767 a 0.85786288,1.3259658 0 0 1 0.097,0.61154 v 11.84107 h 6.78809 v -11.84107 a 0.8578861,1.3260018 0 0 1 0.097,-0.61154 l 0.14356,-0.43767 z m 6.64073,1.04921 v 11.24151 h -6.0123 v -11.24151 a 1.2174782,1.8818096 0 0 0 -0.0349,-0.44967 h 6.0822 a 1.2173813,1.8816596 0 0 0 -0.035,0.44967 z m 1.89287,-1.04921 0.14356,0.43767 a 0.85786288,1.3259658 0 0 1 0.097,0.61154 v 11.84107 h 6.78808 v -11.84107 a 0.8578861,1.3260018 0 0 1 0.097,-0.61154 l 0.14356,-0.43767 z m 6.64073,1.04921 v 11.24151 h -6.01231 v -11.24151 a 1.2174782,1.8818096 0 0 0 -0.0349,-0.44967 h 6.0822 a 1.2173813,1.8816596 0 0 0 -0.0349,0.44967 z m 1.89286,-1.04921 0.14357,0.43767 a 0.85786288,1.3259658 0 0 1 0.097,0.61154 v 11.84107 h 6.78809 v -11.84107 a 0.8578861,1.3260018 0 0 1 0.097,-0.61154 l 0.14356,-0.43767 z m 6.64074,1.04921 v 11.24151 h -6.01231 v -11.24151 a 1.2174782,1.8818096 0 0 0 -0.0349,-0.44967 h 6.08219 a 1.2173813,1.8816596 0 0 0 -0.035,0.44967 z m 1.89286,-1.04921 0.14357,0.43767 a 0.85786288,1.3259658 0 0 1 0.097,0.61154 v 11.84107 h 6.78809 v -11.84107 a 0.8578861,1.3260018 0 0 1 0.097,-0.61154 l 0.14357,-0.43767 z m 6.64073,1.04921 v 11.24151 h -6.01231 v -11.24151 a 1.2174782,1.8818096 0 0 0 -0.0349,-0.44967 h 6.08219 a 1.2173813,1.8816596 0 0 0 -0.035,0.44967 z"
     fill="#3f3d56"
     id="path944"
     style="stroke-width:0.241122" />
  <path
     d="M 516.25426,324.26308 H 501.9521 a 1.137435,1.7580899 0 0 1 -1.13615,-1.75611 v -11.77625 a 1.137435,1.7580899 0 0 1 1.13615,-1.75611 h 14.30216 a 1.1374234,1.758072 0 0 1 1.13615,1.75611 v 11.77625 a 1.1374234,1.758072 0 0 1 -1.13615,1.75611 z"
     fill="#6c63ff"
     id="path946"
     style="stroke-width:0.241122" />
  <path
     d="m 538.0187,324.26308 h -14.30216 a 1.137435,1.7580899 0 0 1 -1.13615,-1.75611 v -11.77625 a 1.137435,1.7580899 0 0 1 1.13615,-1.75611 h 14.30216 a 1.1374234,1.758072 0 0 1 1.13615,1.75611 v 11.77625 a 1.1374234,1.758072 0 0 1 -1.13615,1.75611 z"
     fill="#6c63ff"
     id="path948"
     style="stroke-width:0.241122" />
  <path
     d="m 559.78315,324.26308 h -14.30216 a 1.1374332,1.7580869 0 0 1 -1.13614,-1.75611 v -11.77625 a 1.1374332,1.7580869 0 0 1 1.13614,-1.75611 h 14.30216 a 1.1374234,1.758072 0 0 1 1.13615,1.75611 v 11.77625 a 1.1374234,1.758072 0 0 1 -1.13615,1.75611 z"
     fill="#6c63ff"
     id="path950"
     style="stroke-width:0.241122" />
  <path
     d="M 516.25426,363.53346 H 501.9521 a 1.137435,1.7580899 0 0 1 -1.13615,-1.75611 v -11.77626 a 1.137435,1.7580899 0 0 1 1.13615,-1.7561 h 14.30216 a 1.1374234,1.758072 0 0 1 1.13615,1.7561 v 11.77626 a 1.1374234,1.758072 0 0 1 -1.13615,1.75611 z"
     fill="#6c63ff"
     id="path952"
     style="stroke-width:0.241122" />
  <path
     d="m 538.0187,363.53346 h -14.30216 a 1.137435,1.7580899 0 0 1 -1.13615,-1.75611 v -11.77626 a 1.137435,1.7580899 0 0 1 1.13615,-1.7561 h 14.30216 a 1.1374234,1.758072 0 0 1 1.13615,1.7561 v 11.77626 a 1.1374234,1.758072 0 0 1 -1.13615,1.75611 z"
     fill="#6c63ff"
     id="path954"
     style="stroke-width:0.241122" />
  <path
     d="m 559.78315,363.53346 h -14.30216 a 1.1374332,1.7580869 0 0 1 -1.13614,-1.75611 v -11.77626 a 1.1374332,1.7580869 0 0 1 1.13614,-1.7561 h 14.30216 a 1.1374234,1.758072 0 0 1 1.13615,1.7561 v 11.77626 a 1.1374234,1.758072 0 0 1 -1.13615,1.75611 z"
     fill="#6c63ff"
     id="path956"
     style="stroke-width:0.241122" />
  <path
     d="M 516.25426,402.80384 H 501.9521 a 1.137435,1.7580899 0 0 1 -1.13615,-1.75612 v -11.77624 a 1.137435,1.7580899 0 0 1 1.13615,-1.75611 h 14.30216 a 1.1374234,1.758072 0 0 1 1.13615,1.75611 v 11.77624 a 1.1374234,1.758072 0 0 1 -1.13615,1.75612 z"
     fill="#6c63ff"
     id="path958"
     style="stroke-width:0.241122" />
  <path
     d="m 538.0187,402.80384 h -14.30216 a 1.137435,1.7580899 0 0 1 -1.13615,-1.75612 v -11.77624 a 1.137435,1.7580899 0 0 1 1.13615,-1.75611 h 14.30216 a 1.1374234,1.758072 0 0 1 1.13615,1.75611 v 11.77624 a 1.1374234,1.758072 0 0 1 -1.13615,1.75612 z"
     fill="#6c63ff"
     id="path960"
     style="stroke-width:0.241122" />
  <path
     d="m 559.78315,402.80384 h -14.30216 a 1.1374332,1.7580869 0 0 1 -1.13614,-1.75612 v -11.77624 a 1.1374332,1.7580869 0 0 1 1.13614,-1.75611 h 14.30216 a 1.1374234,1.758072 0 0 1 1.13615,1.75611 v 11.77624 a 1.1374234,1.758072 0 0 1 -1.13615,1.75612 z"
     fill="#6c63ff"
     id="path962"
     style="stroke-width:0.241122" />
  <path
     d="m 513.93884,325.7741 h -16.56823 a 1.5118698,2.3368393 0 0 1 -1.51012,-2.33423 v -13.64206 a 1.5118698,2.3368393 0 0 1 1.51012,-2.33422 h 16.56823 a 1.5118736,2.3368454 0 0 1 1.51013,2.33422 v 13.64206 a 1.5118736,2.3368454 0 0 1 -1.51013,2.33423 z m -16.56823,-17.71096 a 1.1235059,1.7365602 0 0 0 -1.12223,1.73467 v 13.64206 a 1.123504,1.7365572 0 0 0 1.12223,1.73468 h 16.56823 a 1.1235078,1.7365631 0 0 0 1.12224,-1.73468 v -13.64206 a 1.1235078,1.7365631 0 0 0 -1.12224,-1.73467 z"
     fill="#3f3d56"
     id="path964"
     style="stroke-width:0.241122" />
  <path
     d="m 539.15174,325.7741 h -16.56823 a 1.5118736,2.3368454 0 0 1 -1.51012,-2.33423 v -13.64206 a 1.5118756,2.3368484 0 0 1 1.51012,-2.33422 h 16.56822 a 1.5118736,2.3368454 0 0 1 1.51013,2.33422 v 13.64206 a 1.5118736,2.3368454 0 0 1 -1.51012,2.33423 z m -16.56823,-17.71096 a 1.1235098,1.7365661 0 0 0 -1.12224,1.73467 v 13.64206 a 1.1235078,1.7365631 0 0 0 1.12224,1.73468 h 16.56822 a 1.1235078,1.7365631 0 0 0 1.12224,-1.73468 v -13.64206 a 1.1235078,1.7365631 0 0 0 -1.12224,-1.73467 z"
     fill="#3f3d56"
     id="path966"
     style="stroke-width:0.241122" />
  <path
     d="m 564.36463,325.7741 h -16.56822 a 1.5118736,2.3368454 0 0 1 -1.51013,-2.33423 v -13.64206 a 1.5118756,2.3368484 0 0 1 1.51013,-2.33422 h 16.56822 a 1.5118736,2.3368454 0 0 1 1.51012,2.33422 v 13.64206 a 1.5118736,2.3368454 0 0 1 -1.51012,2.33423 z m -16.56822,-17.71096 a 1.1235098,1.7365661 0 0 0 -1.12225,1.73467 v 13.64206 a 1.1235078,1.7365631 0 0 0 1.12225,1.73468 h 16.56822 a 1.1235078,1.7365631 0 0 0 1.12223,-1.73468 v -13.64206 a 1.1235078,1.7365631 0 0 0 -1.12223,-1.73467 z"
     fill="#3f3d56"
     id="path968"
     style="stroke-width:0.241122" />
  <path
     d="m 513.93884,365.04447 h -16.56823 a 1.5118698,2.3368393 0 0 1 -1.51012,-2.33422 V 349.0682 a 1.5118698,2.3368393 0 0 1 1.51012,-2.33423 h 16.56823 a 1.5118736,2.3368454 0 0 1 1.51013,2.33423 v 13.64205 a 1.5118736,2.3368454 0 0 1 -1.51013,2.33422 z m -16.56823,-17.71095 a 1.1235059,1.7365602 0 0 0 -1.12223,1.73468 v 13.64205 a 1.123504,1.7365572 0 0 0 1.12223,1.73468 h 16.56823 a 1.1235078,1.7365631 0 0 0 1.12224,-1.73468 V 349.0682 a 1.1235078,1.7365631 0 0 0 -1.12224,-1.73468 z"
     fill="#3f3d56"
     id="path970"
     style="stroke-width:0.241122" />
  <path
     d="m 539.15174,365.04447 h -16.56823 a 1.5118736,2.3368454 0 0 1 -1.51012,-2.33422 V 349.0682 a 1.5118756,2.3368484 0 0 1 1.51012,-2.33423 h 16.56822 a 1.5118736,2.3368454 0 0 1 1.51013,2.33423 v 13.64205 a 1.5118736,2.3368454 0 0 1 -1.51012,2.33422 z m -16.56823,-17.71095 a 1.1235098,1.7365661 0 0 0 -1.12224,1.73468 v 13.64205 a 1.1235078,1.7365631 0 0 0 1.12224,1.73468 h 16.56822 a 1.1235078,1.7365631 0 0 0 1.12224,-1.73468 V 349.0682 a 1.1235078,1.7365631 0 0 0 -1.12224,-1.73468 z"
     fill="#3f3d56"
     id="path972"
     style="stroke-width:0.241122" />
  <path
     d="m 564.36463,365.04447 h -16.56822 a 1.5118736,2.3368454 0 0 1 -1.51013,-2.33422 V 349.0682 a 1.5118756,2.3368484 0 0 1 1.51013,-2.33423 h 16.56822 a 1.5118736,2.3368454 0 0 1 1.51012,2.33423 v 13.64205 a 1.5118736,2.3368454 0 0 1 -1.51012,2.33422 z m -16.56822,-17.71095 a 1.1235098,1.7365661 0 0 0 -1.12225,1.73468 v 13.64205 a 1.1235078,1.7365631 0 0 0 1.12225,1.73468 h 16.56822 a 1.1235078,1.7365631 0 0 0 1.12223,-1.73468 V 349.0682 a 1.1235078,1.7365631 0 0 0 -1.12223,-1.73468 z"
     fill="#3f3d56"
     id="path974"
     style="stroke-width:0.241122" />
  <path
     d="m 513.93884,404.31486 h -16.56823 a 1.5118698,2.3368393 0 0 1 -1.51012,-2.33423 v -13.64205 a 1.5118698,2.3368393 0 0 1 1.51012,-2.33423 h 16.56823 a 1.5118736,2.3368454 0 0 1 1.51013,2.33423 v 13.64205 a 1.5118736,2.3368454 0 0 1 -1.51013,2.33423 z M 497.37061,386.6039 a 1.1235059,1.7365602 0 0 0 -1.12223,1.73468 v 13.64205 a 1.123504,1.7365572 0 0 0 1.12223,1.73468 h 16.56823 a 1.1235078,1.7365631 0 0 0 1.12224,-1.73468 v -13.64205 a 1.1235078,1.7365631 0 0 0 -1.12224,-1.73468 z"
     fill="#3f3d56"
     id="path976"
     style="stroke-width:0.241122" />
  <path
     d="m 539.15174,404.31486 h -16.56823 a 1.5118736,2.3368454 0 0 1 -1.51012,-2.33423 v -13.64205 a 1.5118756,2.3368484 0 0 1 1.51012,-2.33423 h 16.56822 a 1.5118736,2.3368454 0 0 1 1.51013,2.33423 v 13.64205 a 1.5118736,2.3368454 0 0 1 -1.51012,2.33423 z M 522.58351,386.6039 a 1.1235098,1.7365661 0 0 0 -1.12224,1.73468 v 13.64205 a 1.1235078,1.7365631 0 0 0 1.12224,1.73468 h 16.56822 a 1.1235078,1.7365631 0 0 0 1.12224,-1.73468 v -13.64205 a 1.1235078,1.7365631 0 0 0 -1.12224,-1.73468 z"
     fill="#3f3d56"
     id="path978"
     style="stroke-width:0.241122" />
  <path
     d="m 564.36463,404.31486 h -16.56822 a 1.5118736,2.3368454 0 0 1 -1.51013,-2.33423 v -13.64205 a 1.5118756,2.3368484 0 0 1 1.51013,-2.33423 h 16.56822 a 1.5118736,2.3368454 0 0 1 1.51012,2.33423 v 13.64205 a 1.5118736,2.3368454 0 0 1 -1.51012,2.33423 z M 547.79641,386.6039 a 1.1235098,1.7365661 0 0 0 -1.12225,1.73468 v 13.64205 a 1.1235078,1.7365631 0 0 0 1.12225,1.73468 h 16.56822 a 1.1235078,1.7365631 0 0 0 1.12223,-1.73468 v -13.64205 a 1.1235078,1.7365631 0 0 0 -1.12223,-1.73468 z"
     fill="#3f3d56"
     id="path980"
     style="stroke-width:0.241122" />
  <path
     d="M 631.86045,450.61777 H 436.36357 a 0.19394617,0.29977519 0 0 1 0,-0.59955 h 195.49688 a 0.19394617,0.29977519 0 0 1 0,0.59955 z"
     fill="#3f3d56"
     id="path982"
     style="stroke-width:0.241122" />
  <path
     d="m 540.66187,421.60277 a 1.6693243,2.5802107 0 0 0 -1.64853,-2.61114 h -8.14571 v 31.02659 h 9.79424 z"
     fill="#3f3d56"
     id="path984"
     style="stroke-width:0.241122" />
  <path
     d="m 531.06157,449.71845 h -10.18213 v -28.02886 a 1.8445772,2.8510925 0 0 1 1.84248,-2.84785 h 8.33965 z m -9.79424,-0.59955 h 9.40635 v -29.67762 h -7.95176 a 1.4562114,2.2508103 0 0 0 -1.45459,2.24831 z"
     fill="#3f3d56"
     id="path986"
     style="stroke-width:0.241122" />
  <ellipse
     cx="522.14008"
     cy="435.47916"
     fill="#3f3d56"
     id="circle988"
     rx="0.58183599"
     ry="0.89932162"
     style="stroke-width:0.241122" />
</svg>
