<?xml version="1.0" encoding="UTF-8" standalone="no"?>
<svg
   xmlns:dc="http://purl.org/dc/elements/1.1/"
   xmlns:cc="http://creativecommons.org/ns#"
   xmlns:rdf="http://www.w3.org/1999/02/22-rdf-syntax-ns#"
   xmlns:svg="http://www.w3.org/2000/svg"
   xmlns="http://www.w3.org/2000/svg"
   xmlns:sodipodi="http://sodipodi.sourceforge.net/DTD/sodipodi-0.dtd"
   xmlns:inkscape="http://www.inkscape.org/namespaces/inkscape"
   id="bde73d41-a320-4095-b34e-88e478ed2899"
   data-name="Layer 1"
   width="1097.1"
   height="790.89"
   viewBox="0 0 1097.1 790.89"
   version="1.1"
   sodipodi:docname="kids.svg"
   inkscape:version="1.0.2 (e86c8708, 2021-01-15)">
  <metadata
     id="metadata234">
    <rdf:RDF>
      <cc:Work
         rdf:about="">
        <dc:format>image/svg+xml</dc:format>
        <dc:type
           rdf:resource="http://purl.org/dc/dcmitype/StillImage" />
        <dc:title>fatherhood</dc:title>
      </cc:Work>
    </rdf:RDF>
  </metadata>
  <sodipodi:namedview
     pagecolor="#ffffff"
     bordercolor="#666666"
     borderopacity="1"
     objecttolerance="10"
     gridtolerance="10"
     guidetolerance="10"
     inkscape:pageopacity="0"
     inkscape:pageshadow="2"
     inkscape:window-width="1440"
     inkscape:window-height="900"
     id="namedview232"
     showgrid="false"
     inkscape:zoom="0.66245342"
     inkscape:cx="577.34386"
     inkscape:cy="450.7715"
     inkscape:window-x="0"
     inkscape:window-y="0"
     inkscape:window-maximized="0"
     inkscape:current-layer="bde73d41-a320-4095-b34e-88e478ed2899"
     inkscape:document-rotation="0" />
  <defs
     id="defs17">
    <linearGradient
       id="1e2c0012-142b-4e80-b266-1fa459546aa8"
       x1="567.33"
       y1="839.89"
       x2="567.33"
       y2="127.09"
       gradientUnits="userSpaceOnUse">
      <stop
         offset="0"
         stop-color="gray"
         stop-opacity="0.25"
         id="stop10" />
      <stop
         offset="0.54"
         stop-color="gray"
         stop-opacity="0.12"
         id="stop12" />
      <stop
         offset="1"
         stop-color="gray"
         stop-opacity="0.1"
         id="stop14" />
    </linearGradient>
  </defs>
  <title
     id="title19">fatherhood</title>
  <path
     d="M1128.65,135.27H1017.18a9.63,9.63,0,1,1,0-19.26h19.27a9.64,9.64,0,0,1,0-19.27h-13.76a9.64,9.64,0,0,1,0-19.27h58.18c-12.91-6-28-10.27-45.39-12.51-158.64-20.37-215.28-6.89-235.26,7-24.65,17.1-52.15,29.68-81.54,35.74-97.88,20.19-280.93,44.49-446.84-7.78-82.46-26-143.74,17.92-180.48,91.28H1148c-1.38-21.32-5.51-41-13.09-58.24A9.56,9.56,0,0,1,1128.65,135.27Z"
     transform="translate(-51.45 -54.56)"
     fill="#6c63ff"
     opacity="0.1"
     id="path23" />
  <path
     d="M53.84,329.66a491.11,491.11,0,0,0,4.32,129.45l978.68,35.8a459.85,459.85,0,0,0,68-103.71ZM440.92,422H421.65a9.63,9.63,0,1,1,0,19.26H310.18a9.63,9.63,0,1,1,0-19.26h19.27a9.64,9.64,0,0,1,0-19.27H315.69a9.64,9.64,0,0,1,0-19.27H427.16a9.64,9.64,0,0,1,0,19.27h13.76a9.64,9.64,0,0,1,0,19.27Z"
     fill="#6c63ff"
     opacity="0.1"
     id="path25"
     transform="translate(-51.45 -54.56)" />
  <path
     d="M1148.05,191.84l-1068.48,26C66.57,251.25,58,289,54,328.17H1129.33a457.06,457.06,0,0,0,15.53-70.33C1148.06,234.83,1149.34,212.57,1148.05,191.84ZM270.92,277H251.65a9.63,9.63,0,1,1,0,19.26H140.18a9.63,9.63,0,0,1,0-19.26h19.27a9.64,9.64,0,0,1,0-19.27H145.69a9.64,9.64,0,0,1,0-19.27H257.16a9.64,9.64,0,0,1,0,19.27h13.76a9.64,9.64,0,0,1,0,19.27Z"
     transform="translate(-51.45 -54.56)"
     fill="#6c63ff"
     opacity="0.1"
     id="path27" />
  <ellipse
     cx="563.62"
     cy="772.01"
     rx="348.83"
     ry="18.88"
     fill="#6c63ff"
     opacity="0.1"
     id="ellipse29" />
  <path
     d="M914.87,696.9c0,2.53-.28,4.58-.63,4.58s-.64-2.05-.64-4.58.36-1.34.71-1.34S914.87,694.37,914.87,696.9Z"
     transform="translate(-51.45 -54.56)"
     fill="#ffd037"
     id="path35" />
  <path
     d="M918.37,699.92c-2.22,1.21-4.15,1.94-4.32,1.63s1.5-1.54,3.72-2.75,1.34-.33,1.51,0S920.59,698.71,918.37,699.92Z"
     transform="translate(-51.45 -54.56)"
     fill="#ffd037"
     id="path37" />
  <path
     d="M621,391s-41.53,51-39.77,36.75c1.1-8.95-4.58-19.88-9-26.79-2.61-4.11-4.77-6.8-4.77-6.8s25.34-46.45,26.75-40.12c.45,2,3.38,6.59,7.15,11.83C609.31,376.85,621,391,621,391Z"
     transform="translate(-51.45 -54.56)"
     fill="#ffc1c8"
     id="path105" />
  <path
     d="M697.69,813.93v5s-38.36-13.37-59.48-27.45c-8.71-5.81-11.19-11.21-10.71-15.53,11.66,5.9,33.35,17.15,39.92,22.22C673,802.47,687.42,809.28,697.69,813.93Z"
     transform="translate(-51.45 -54.56)"
     fill="#fff"
     opacity="0.3"
     id="path107" />
  <path
     d="M647.91,796.22a32.49,32.49,0,0,1-.55,4.39S608.48,802,588.24,799c-5.59-.83-8.75-2.62-10.32-4.76a7.31,7.31,0,0,1-.73-7,11,11,0,0,1,.85-1.88c1.51-2.64,3.83-4.51,5.1-4.26,3.52.71,9.56-6.51,9.56-6.51-.48-4.41,6.45-6,7.53-5.28a1.41,1.41,0,0,0,2.25-.88c.07-.33.09-1.92.09-3.78,0-3.1-.09-7-.09-7l39.08,4.75,1.55,7.47c1.42,6.66,3.4,15.81,4.25,18.94A22.6,22.6,0,0,1,647.91,796.22Z"
     transform="translate(-51.45 -54.56)"
     fill="#474463"
     id="path117" />
  <path
     d="M578,785.34a2,2,0,0,1-.85,1.88c-4.92,3.8-28.53-.33-28.53-.33s-48.24-3-55.45-7.92a5.09,5.09,0,0,1-1.59-1.67c-3-5.42,7.86-14.52,8.8-14.52s13.91-1.77,14.78-1.94c6-1.21,12-4.93,13-3.87s6-1.41,8.44-1.76c.89-.13,1.3-1.39,1.45-3a33.34,33.34,0,0,0-.22-6.53l38.53,10.37.34,6.14,1.11,20.44.14,2.51A.91.91,0,0,1,578,785.34Z"
     transform="translate(-51.45 -54.56)"
     fill="#474463"
     id="path121" />
  <path
     d="M560.78,432.83s-29.21,2.46-34.84,4.22-29.91.7-32,0-43.65,8.8-24.64,18.3,31,0,31,0,24.64-1.41,31,2.47,29.56,1.76,29.56,1.76Z"
     transform="translate(-51.45 -54.56)"
     fill="#ffc1c8"
     id="path131" />
  <path
     d="M583.31,289.94s22.52-15.84,22.52-17.6S583.31,289.94,583.31,289.94Z"
     transform="translate(-51.45 -54.56)"
     opacity="0.1"
     id="path147" />
  <path
     d="M621,309.65s12-2.82,13-9.15S621,309.65,621,309.65Z"
     transform="translate(-51.45 -54.56)"
     opacity="0.1"
     id="path149" />
  <path
     d="M630.82,325.84s16.9-8.37,16.19-9.82S630.82,325.84,630.82,325.84Z"
     transform="translate(-51.45 -54.56)"
     opacity="0.1"
     id="path151" />
  <path
     d="M721.27,272.23s-7,4.57-4.92,8.85S721.27,272.23,721.27,272.23Z"
     transform="translate(-51.45 -54.56)"
     opacity="0.1"
     id="path153" />
  <path
     d="M742,274.1s-19.94,19-15.43,19.36S742,274.1,742,274.1Z"
     transform="translate(-51.45 -54.56)"
     opacity="0.1"
     id="path155" />
  <path
     d="M696.64,568.68s25.69,4.93,26.39,6.69S696.64,568.68,696.64,568.68Z"
     transform="translate(-51.45 -54.56)"
     opacity="0.1"
     id="path157" />
  <path
     d="M705.79,585.57s13.72,8.45,14.07,10.91S705.79,585.57,705.79,585.57Z"
     transform="translate(-51.45 -54.56)"
     opacity="0.1"
     id="path159" />
  <path
     d="M702.62,604.58s2.11,9.5,5.63,10.91S702.62,604.58,702.62,604.58Z"
     transform="translate(-51.45 -54.56)"
     opacity="0.1"
     id="path161" />
  <path
     d="M601.37,365.82c-.27,1.5-2.33,1.67-2.75,3.13-4,14.11-12.8,26.8-26.38,32-2.61-4.11-4.77-6.8-4.77-6.8s25.34-46.45,26.75-40.12C594.67,356,597.6,360.58,601.37,365.82Z"
     transform="translate(-51.45 -54.56)"
     opacity="0.1"
     id="path167" />
  <path
     d="M602.12,356.1a46.46,46.46,0,1,1-46.46-46.45A46.29,46.29,0,0,1,602.12,356.1Z"
     transform="translate(-51.45 -54.56)"
     fill="#ffc1c8"
     id="path169" />
  <path
     d="M576.44,756.08l.34,6.14c-4.07.9-11.81,2.08-16.32-.68-5.83-3.57-14.44-4.44-22.33-9.3a33.34,33.34,0,0,0-.22-6.53Z"
     transform="translate(-51.45 -54.56)"
     opacity="0.1"
     id="path171" />
  <path
     d="M643.11,769.89c-.27,1.37-.52,2.21-.52,2.21s-31.05-3.18-40-7.47c0-3.1-.09-7-.09-7l39.08,4.75Z"
     transform="translate(-51.45 -54.56)"
     opacity="0.1"
     id="path173" />
  <path
     d="M636.1,630.27c-2.11,5.63-3.17,6.69-1.05,9.5s1.05,17.6-2.31,19-16,9.85-16,9.85,7,9.15,7.21,13a11.78,11.78,0,0,0,2.72,6.69s10.84,23.23,13,30.62,4.14,19,4.14,19-3.79,10.56-1.17,16.55,0,14.78,0,14.78-37.81-3.87-42-8.84-1.4-16.15-1.4-16.15a40.43,40.43,0,0,0-5.28-14.08c-4.23-6.69,1-13.72,0-14.08s-4.23-4.22-7.41-10.55-5.16-3.88-5.16-3.88,4.12,35.55,0,38.72-4.68,1.76-3.62,6a108.8,108.8,0,0,1,1.76,12.32s-12.67,3.87-19,0-15.86-4.58-24.23-10.56,3.79-16.19,5.9-17.6-.7-21.82-.7-21.82l-2.82-20.06s9.5,2.11,6.38-5.63-6.73-34.49-8.49-38.71,6-9.86,4.93-12.67,4.57-19,4.57-19,.36-13.37,3.87-15.88c1.34-.94,2.21-3.86,2.79-7.09a88.11,88.11,0,0,0,1.09-11.52s80.59-5.63,93.61,2.11c5.86,3.48,5.45,9.89,3,16.38-3,7.92-9.16,16-10.71,18.93C636.81,621,638.21,624.64,636.1,630.27Z"
     transform="translate(-51.45 -54.56)"
     fill="#575988"
     id="path175" />
  <path
     d="M650.33,596.67c-10,2.81-23.32,6.94-25.49,9.31-3.52,3.88-15.49-21.82-15.49-21.82s.71,19.32-15.13,11.24c-13.71-7-35.84-6.08-41.56-5.7a88.11,88.11,0,0,0,1.09-11.52s80.59-5.63,93.61,2.11C653.22,583.77,652.81,590.18,650.33,596.67Z"
     transform="translate(-51.45 -54.56)"
     opacity="0.1"
     id="path177" />
  <path
     d="M609.35,383.91s7-8.45,8.45-5.28,9.71,9.5,9.71,9.5,2.37,7.39,6.54,8.45,35.49,43.29,35.49,43.29l-11.27,22.87-9.15,55.61s.4,8.8-2.09,12-12,2.46-7.59,6.33,10.74,7.39,14.26,25,7.74,27.8,7.74,27.8-33.08,8.45-36.6,12.32-15.49-21.82-15.49-21.82.71,19.31-15.13,11.24-42.94-5.61-42.94-5.61V564.81s5.28-8.1,2.47-13.73,1.92-16.19,1.92-16.19-1.57-10.91-4.39-17.24-1.76-36.25-1.76-36.25-2.14-19.36-.19-29.22A87.4,87.4,0,0,1,558,427.7c3.87-7.54,6.32-14.58,5.27-17.4s9.29-8.92,9.29-8.92l5.73,9.27,1.46,5.54S610.06,394.47,609.35,383.91Z"
     fill="#dce6f2"
     id="path179"
     transform="translate(-51.45 -54.56)" />
  <path
     d="M660,432.83s19.71,19.35,21.82,22.52S691,475,681.85,480s-45,12.71-48.56,10.05-25,3-25,3-35.86,8.8-28.12-5.63,26.05-12,26.05-12,29.58-.05,32.74-3,27-9.28,21.6-22.32S660,432.83,660,432.83Z"
     transform="translate(-51.45 -54.56)"
     fill="#ffc1c8"
     id="path181" />
  <path
     d="M602.12,519.41s-45.91,39.77-41.34,39.77S602.12,519.41,602.12,519.41Z"
     transform="translate(-51.45 -54.56)"
     opacity="0.1"
     id="path183" />
  <path
     d="M632.74,535.6s-14.59,3.51-11.77,5.63S632.74,535.6,632.74,535.6Z"
     transform="translate(-51.45 -54.56)"
     opacity="0.1"
     id="path185" />
  <path
     d="M581.29,439.16s18.21,1.63,15,7.33S581.29,439.16,581.29,439.16Z"
     transform="translate(-51.45 -54.56)"
     opacity="0.1"
     id="path187" />
  <path
     d="M569.94,610.09s-2.47,7.16,0,11,0,13,0,13v32s-.34,23.23,8.09,31.32Z"
     transform="translate(-51.45 -54.56)"
     opacity="0.1"
     id="path189" />
  <path
     d="M545.83,709.81s4.92,7.21,5.63,9.85S545.83,709.81,545.83,709.81Z"
     transform="translate(-51.45 -54.56)"
     opacity="0.1"
     id="path191" />
  <path
     d="M547.06,695.38s11.44-2.11,13.2-.88S547.06,695.38,547.06,695.38Z"
     transform="translate(-51.45 -54.56)"
     opacity="0.1"
     id="path193" />
  <path
     d="M543.72,738.49s-3.35.35,3.34,4,19.71,8.27,19.88,6.69S543.72,738.49,543.72,738.49Z"
     transform="translate(-51.45 -54.56)"
     opacity="0.1"
     id="path195" />
  <path
     d="M592.69,703.47c1.18,0,15.91-.88,15.06,1.41S592.69,703.47,592.69,703.47Z"
     transform="translate(-51.45 -54.56)"
     opacity="0.1"
     id="path197" />
  <path
     d="M612.7,682.88s3.34-5.8,4.57-3.34S612.7,682.88,612.7,682.88Z"
     transform="translate(-51.45 -54.56)"
     opacity="0.1"
     id="path199" />
  <path
     d="M602.12,356.1a46.29,46.29,0,0,1-1.78,12.77c-1.94,1.76-5.29,1.78-7.68.47-2.8-1.54-4.63-4.34-6.45-7s-3.89-5.32-6.87-6.46c-3.77-1.42-8.07,0-11.35,2.36s-5.9,5.48-9,8-7.05,4.56-11,3.94c-2.55-.39-4.81-1.83-7-3.22-3-1.89-6.22-4.83-9.51-6.1s-6,1-9.13,1c-2.49.9-5.2,2.95-4.7,5.54a8.59,8.59,0,0,0,1.28,2.68,11.25,11.25,0,0,1-1.47,12.39,46.46,46.46,0,1,1,84.67-26.43Z"
     opacity="0.1"
     id="path201"
     transform="translate(-51.45 -54.56)" />
  <path
     d="M522.34,360.51c-2.49.9-5.2,2.95-4.71,5.55a8.91,8.91,0,0,0,1.29,2.67c2.92,5.21.45,12.69-5,15.11a4.43,4.43,0,0,1-2.78.44,4.92,4.92,0,0,1-2-1.2,18.51,18.51,0,0,1-5.77-9.95c-.86-4-.33-8.24-.77-12.35s-1.85-8.16-2.34-12.3a11.41,11.41,0,0,1,.63-6.08,14.14,14.14,0,0,1,2.52-3.46c2.81-3.13,5.74-6.33,7.15-10.3,2.23-6.32.61-14.37,5.49-19,2.26-2.12,5.42-2.91,8.22-4.25a57.9,57.9,0,0,0,7.55-4.79c9.05-6.22,20.05-11,30.81-8.8a43.82,43.82,0,0,1,12.21,5,137.27,137.27,0,0,1,20,13.44,31.12,31.12,0,0,1,7,7.19,24.94,24.94,0,0,1,3.06,7.65,43.84,43.84,0,0,1,.58,18c-1,5.86-3.27,11.55-3.36,17.5,0,2,.16,4.16-.87,5.88-1.65,2.74-5.74,3-8.54,1.48s-4.63-4.34-6.44-7-3.89-5.32-6.87-6.45c-3.77-1.43-8.07,0-11.35,2.35s-5.89,5.48-9,8-7,4.56-11,3.94c-2.55-.39-4.81-1.82-7-3.21-3-1.9-6.22-4.84-9.5-6.1S525.46,360.51,522.34,360.51Z"
     fill="#794f6a"
     id="path203"
     transform="translate(-51.45 -54.56)" />
  <g
     opacity="0.1"
     id="g211">
    <path
       d="M513.9,381a4.4,4.4,0,0,1-2.77.44,4.78,4.78,0,0,1-2-1.21,18.54,18.54,0,0,1-5.78-9.94c-.85-4.05-.32-8.25-.76-12.36s-1.86-8.15-2.34-12.3c0-.2,0-.41-.05-.62a15.83,15.83,0,0,0,.05,3.44c.48,4.14,1.9,8.14,2.34,12.3s-.09,8.31.76,12.35a18.53,18.53,0,0,0,5.78,9.95,4.86,4.86,0,0,0,2,1.2,4.4,4.4,0,0,0,2.77-.44c4.3-1.91,6.73-6.94,6.16-11.54A11.09,11.09,0,0,1,513.9,381Z"
       transform="translate(-51.45 -54.56)"
       id="path207" />
    <path
       d="M605.41,340.25c-1,5.86-3.27,11.55-3.35,17.5,0,2,.16,4.16-.88,5.88-1.64,2.74-5.73,3-8.53,1.48s-4.63-4.33-6.45-7-3.88-5.32-6.87-6.45c-3.76-1.42-8.06,0-11.34,2.36s-5.9,5.47-9,8-7.05,4.56-11,3.95c-2.55-.4-4.81-1.83-7-3.22-3-1.9-6.22-4.83-9.5-6.1s-6,1-9.13,1c-2.49.91-5.2,2.95-4.72,5.56a4.14,4.14,0,0,0,.27.82,7.78,7.78,0,0,1,4.45-3.56c3.12,0,5.88-2.24,9.13-1s6.53,4.2,9.5,6.1c2.17,1.39,4.43,2.82,7,3.21,4,.62,7.92-1.39,11-3.94s5.73-5.7,9-8,7.58-3.78,11.34-2.35c3,1.13,5.06,3.82,6.87,6.45s3.65,5.42,6.45,7,6.89,1.26,8.53-1.48c1-1.72.85-3.87.88-5.88.08-5.95,2.32-11.64,3.35-17.5a44.25,44.25,0,0,0,.64-9.12A44.39,44.39,0,0,1,605.41,340.25Z"
       transform="translate(-51.45 -54.56)"
       id="path209" />
  </g>
  <path
     d="m 364.45,384.94 c -0.64741,-0.37863 -57.2563,-20.45338 -34.42705,-30.27111 a 35.87,35.87 0 0 0 11.51001,-7.79558 41.33,41.33 0 0 0 8.12744,-12.11398 51.35,51.35 0 0 0 4.30215,-17.06199 c 0,0 47.50857,15.33169 36.65372,18.54062 -4.73509,1.40118 -10.20565,10.9333 -14.90826,21.19257 -2.54649,5.54259 -4.8643,11.28843 -6.73476,16.09109 -2.59529,6.69569 -4.31608,11.53955 -4.52325,11.41838 z"
     fill="#ffccd0"
     id="path1268"
     inkscape:transform-center-x="7.9974258"
     inkscape:transform-center-y="-3.1989703"
     style="fill:#a0616a" />
  <path
     d="m 353.45,760.44 c -2,1.47 -6.8,2.24 -12.61,2.58 h -0.09 l -1.09,0.06 c -0.64,0 -1.3,0.06 -2,0.07 -14.63,0.47 -33.5,-1.21 -33.5,-1.21 0,0 1.5,-2.5 -2.25,-4.25 -3.75,-1.75 0.5,-4 1,-8.25 0.5,-4.25 -8.71,-17.75 -8.71,-17.75 0,0 -5.75,-52.5 -3.19,-56.75 2.56,-4.25 -2.56,-10.5 -2.56,-10.5 0,0 4.75,-2.5 1.31,-6.75 -3.44,-4.25 -2.31,-20.75 -0.31,-25.5 2,-4.75 -6.25,-25.5 -6,-30.75 0.25,-5.25 -1.75,-11.75 -8.75,-41.75 -4.89,-21 2.55,-38.26 7.47,-46.78 a 47.34,47.34 0 0 1 3.78,-5.72 h 47.75 l 1.21,11.24 0.06,0.62 c 0.4,3.79 0.89,8.38 1.44,13.65 6.67,63.42 22.85,223.53 17.04,227.74 z"
     fill="#3f3d56"
     id="path1280" />
  <path
     d="m 353.45,760.44 c -2.17,1.57 -7.45,2.34 -13.79,2.64 a 33.69,33.69 0 0 0 -5,0.07 c 0,0 -0.75,-1.71 -9.75,-8 -9,-6.29 0,-20.5 0,-20.5 l -9.36,-38.25 c 0,0 -2.35,-10.21 -0.35,-16.21 2,-6 -4.31,-7.5 -4.31,-7.5 0,0 6.31,-4 0,-9.25 -6.31,-5.25 -7.19,-24.5 -7.19,-24.5 0,0 -9,-12 -5,-16 4,-4 -2.5,-13.5 -2.5,-13.5 0,0 -9.5,-15 -8.5,-20 1,-5 14.5,-3.25 10.5,-19.25 -4,-16 20.65,6 20.65,6 l 16.12,-57.14 c 5.23,49.44 24.77,236.83 18.48,241.39 z"
     opacity="0.1"
     id="path1282" />
  <path
     d="m 377.7,751.69 c 0,0 -27,17 -28.75,13.75 -1.09,-2 -5.18,-2.41 -8.11,-2.42 h -0.09 c -1.74,0 -3.05,0.13 -3.05,0.13 0,0 -0.75,-1.71 -9.75,-8 -9,-6.29 0,-20.5 0,-20.5 l -9.36,-38.25 c 0,0 -2.39,-10.21 -0.39,-16.21 2,-6 -4.31,-7.5 -4.31,-7.5 0,0 6.31,-4 0,-9.25 -6.31,-5.25 -7.19,-24.5 -7.19,-24.5 0,0 -9,-12 -5,-16 4,-4 -2.5,-13.5 -2.5,-13.5 0,0 -9.5,-15 -8.5,-20 1,-5 0,-4 -4,-20 -3,-12.06 4.76,-39.17 8.78,-51.79 1.31,-4.13 2.22,-6.71 2.22,-6.71 l 37.21,7.49 37.29,7.51 1,13.25 -0.28,2.1 -5,37 -3,32.11 c 0,0 0,9.25 -1.5,13.5 -1.5,4.25 0.75,22 0.75,22 0,0 0,3.5 -3.75,17.5 -3.75,14 3.25,19.5 3.25,19.5 0,0 4.5,38.75 3,47.25 -1.5,8.5 11.03,21.54 11.03,21.54 z"
     fill="#3f3d56"
     id="path1284" />
  <path
     d="m 322.83,658.69 c 3.75,0.63 23.12,1 18,3.38 -5.12,2.38 -18,-3.38 -18,-3.38 z"
     opacity="0.1"
     id="path1286" />
  <path
     d="m 320.7,671.32 c 1.5,-0.13 8.38,-3.13 10.25,-2.88 1.87,0.25 4.38,-0.53 6.63,0 2.25,0.53 6.46,2 4.1,2.89 -2.36,0.89 -7.3,0.12 -10.14,1 -2.84,0.88 -10.84,-1.01 -10.84,-1.01 z"
     opacity="0.1"
     id="path1288" />
  <path
     d="m 300.2,666.07 c 1,-0.13 8.75,-2.13 8.13,0 -0.62,2.13 -8.13,0 -8.13,0 z"
     opacity="0.1"
     id="path1290" />
  <path
     d="m 287.83,603.32 c 0.75,1 5.12,11 7.25,11 2.13,0 -7.25,-11 -7.25,-11 z"
     opacity="0.1"
     id="path1292" />
  <path
     d="m 414.91655,343.81195 a 40,40 0 1 1 8.58768,-6.21867 40,40 0 0 1 -8.58768,6.21867 z"
     fill="#ffccd0"
     id="path1296"
     style="fill:#a06166;fill-opacity:1" />
  <path
     d="m 370.2,367.44 c -0.75,0 -59.75,11.25 -45,-8.75 a 35.87,35.87 0 0 0 6,-12.54 c 11.93,-3.81 26.55,2.54 26.55,2.54 l 6.75,5 a 23.22,23.22 0 0 1 3.89,1.61 c 1.09,7.09 2.05,12.14 1.81,12.14 z"
     opacity="0.1"
     id="path1298" />
  <path
     d="m 373.2,539.19 -0.28,2.1 c -1.59,0.54 -8.9,2.57 -26.38,-4.6 -2.81,-1.15 -6.28,-2.51 -10.13,-4 -12.41,-4.75 -28.89,-10.73 -40.93,-15 -5.77,-2.07 -10.52,-3.76 -13.31,-4.74 a 47.34,47.34 0 0 1 3.78,-5.72 h 47.75 l 1.21,11.24 37.29,7.47 z"
     opacity="0.1"
     id="path1300" />
  <path
     d="m 357.7,349.69 c 0,0 -26.5,-11.5 -37.25,5.75 -10.75,17.25 -15.5,27.5 -15.5,27.5 0,0 -1.5,11.5 -4.25,14.25 -2.75,2.75 5,52.25 5,52.25 0,0 -9.25,19 -1,22.37 8.25,3.37 -0.75,6.13 -0.75,6.13 0,0 2.5,5.75 -2.25,6.25 -4.75,0.5 -7.5,9.25 -7.5,9.25 l -14.75,16.5 c 0,0 48.17,17 67.09,24.75 18.92,7.75 25.91,4.75 26.66,4.5 0.75,-0.25 12.25,-31.75 12.25,-31.75 0,0 -0.5,-8.75 3.75,-11.75 4.25,-3 0,-67.75 0,-67.75 l -1.46,-40.43 a 36.55,36.55 0 0 0 -18.21,-30.57 25.32,25.32 0 0 0 -5.08,-2.25 z"
     fill="#6c63ff"
     id="path1302" />
  <path
     d="m 383.95,418.69 5.25,9.25 c 0,0 -42,12 -43.65,0.5 -0.25,-1.68 16.4,-15 16.4,-15 z"
     fill="#6c63ff"
     id="path1304" />
  <path
     d="m 383.95,418.69 5.25,9.25 c 0,0 -42,12 -43.65,0.5 -0.25,-1.68 16.4,-15 16.4,-15 z"
     opacity="0.1"
     id="path1306" />
  <path
     d="m 312.45,468.69 c 0,0 20,-6.5 15.75,-1.25 -4.25,5.25 -15.75,1.25 -15.75,1.25 z"
     opacity="0.1"
     id="path1308" />
  <path
     d="m 335.27,470.15 c 0,0 10.23,12.78 12.68,8 2.45,-4.78 -12.68,-8 -12.68,-8 z"
     opacity="0.1"
     id="path1310" />
  <path
     d="m 419.28094,261.21003 2.96911,0.99062 -1.88491,0.68885 3.86078,1.28812 -0.47474,1.4229 2.76317,2.36615 -0.31649,0.94859 2.76971,1.58824 -1.38241,1.77365 5.21728,1.74071 -1.36037,2.08672 3.01287,2.81843 -0.82921,2.48532 c 0,0 3.00337,2.84689 4.18911,3.24251 1.18575,0.39561 2.7917,2.12266 1.34333,2.29302 -1.44837,0.17036 0.51184,1.62556 1.50783,2.08436 0.99599,0.45881 1.93473,2.1003 1.17886,2.3752 l -0.74637,0.27807 c 0,0 2.28843,3.78905 2.88605,3.98844 0.59761,0.19939 -0.16513,2.45388 -0.83238,2.49481 -0.66725,0.0409 -3.3585,0.58724 -1.85693,2.40597 1.50158,1.81873 0.51118,3.99726 -0.67457,3.60165 -1.18574,-0.39562 -1.14415,-2.10007 -1.97958,-0.007 -0.83542,2.0932 -3.52079,4.23331 -3.04584,2.01985 0.47496,-2.21346 -3.98733,-1.0668 -9.04812,3.04275 -5.06079,4.10955 -7.59358,3.39101 -7.59358,3.39101 0,0 -3.76625,11.28828 -5.69543,11.95182 -1.92917,0.66354 -8.65596,-8.43305 -8.25391,-10.01724 0.40205,-1.58419 -4.74997,-21.87796 -16.49067,-2.20238 l -6.59806,16.90054 c 0,0 -26.68181,-5.33904 -29.29416,-4.2393 -2.61235,1.09975 -24.81768,-33.58082 -4.36114,-55.398 20.45653,-21.81717 23.72671,-23.18236 33.42544,-23.27769 9.69873,-0.0953 31.68097,6.78559 37.59533,14.87319 z"
     fill="#3f3d56"
     id="path1314" />
  <path
     d="m 347.7,422.94 c 0,0 -0.25,20.25 -2,25.25 -1.75,5 12,51.75 12,51.75 0,0 11,24.65 9,32.25 -2,7.6 0.75,56.25 17.25,44.25 16.5,-12 4.25,-51.25 4.25,-51.25 0,0 -5.25,-21.86 -5.25,-24.55 0,-2.69 -5.5,-43.2 -5.5,-43.2 0,0 -4.25,-13.25 -3,-21.25 1.25,-8 1.75,-22.75 1.75,-22.75 z"
     fill="#ffccd0"
     id="path1316"
     style="fill:#a0616a" />
  <path
     d="m 364.45,384.94 c 0,0 -20.06,6.5 -20.9,24.25 -0.84,17.75 0,19.25 0,19.25 0,0 29.9,-15 43.65,-0.5 l -1.41,-39.25 z"
     opacity="0.1"
     id="path1318" />
  <path
     d="m 366.45,384.94 c 0,0 -20.06,6.5 -20.9,24.25 -0.84,17.75 0,19.25 0,19.25 0,0 29.9,-15 43.65,-0.5 l -1.41,-39.25 z"
     fill="#6c63ff"
     id="path1320"
     style="fill:#5263ff;fill-opacity:1" />
  <g
     opacity="0.1"
     id="g1338"
     transform="translate(227.64353,3.83117)">
    <path
       d="m 242.22,294.73 c -0.45,0.56 1.41,1.16 2.41,1.27 a 1.63,1.63 0 0 1 0.3,0.07 c 0.07,-0.61 -1.43,-1.32 -2.43,-1.32 z"
       transform="translate(-55.35,-18.71)"
       id="path1322" />
    <path
       d="m 235.5,291 c 0,0 0.92,0.43 2,0.86 v -1.48 l -2,-0.92 z"
       transform="translate(-55.35,-18.71)"
       id="path1324" />
    <path
       d="m 246.39,298 -0.51,0.41 c 0,0 1.15,1 2.24,1.8 l 0.38,-0.3 c 0.63,-0.5 -0.75,-1.75 -1.87,-1.88 z"
       transform="translate(-55.35,-18.71)"
       id="path1326" />
    <polygon
       points="178.65,268.98 179.02,267.54 176.51,267.54 176.4,267.96 "
       id="polygon1328" />
    <path
       d="m 202.54,334.63 -0.91,18.12 c 0,0 -27,3.38 -29.13,5.25 -0.66,0.59 -4.25,-1.54 -8.49,-5.57 5.06,5.31 9.72,8.25 10.49,7.57 2.13,-1.87 29.13,-5.25 29.13,-5.25 l 0.91,-18.12 c 2.87,-13.12 8,-12.49 11.68,-9.4 -3.68,-4.33 -10.22,-8.23 -13.68,7.4 z"
       transform="translate(-55.35,-18.71)"
       id="path1330" />
    <path
       d="m 250.88,308.75 c -2,-1.25 0.37,-2.62 1,-2.87 0.63,-0.25 0.62,-2.63 0,-2.63 a 4.65,4.65 0 0 1 -1.54,-0.91 c 0,0.66 -0.13,1.4 -0.46,1.54 -0.63,0.25 -3,1.62 -1,2.87 2,1.25 1.75,3.63 0.5,3.63 -1.25,0 -1.75,-1.63 -1.88,0.62 -0.13,2.25 -2,5.13 -2.25,2.88 -0.25,-2.25 -4.12,0.25 -7.62,5.75 -3.5,5.5 -6.13,5.62 -6.13,5.62 0,0 0,11.9 -1.62,13.14 -1.13,0.85 -5.87,-2 -8.75,-4.34 1.47,2.18 9.26,7.47 10.75,6.34 1.49,-1.13 1.62,-13.14 1.62,-13.14 0,0 2.63,-0.12 6.13,-5.62 3.5,-5.5 7.37,-8 7.62,-5.75 0.25,2.25 2.13,-0.63 2.25,-2.88 0.12,-2.25 0.63,-0.62 1.88,-0.62 1.25,0 1.5,-2.38 -0.5,-3.63 z"
       transform="translate(-55.35,-18.71)"
       id="path1332" />
    <polygon
       points="174.23,265.54 174.27,265.42 171.75,264.91 171.52,265.54 "
       id="polygon1334" />
    <polygon
       points="167.77,261.23 167.77,260.92 167,260.92 "
       id="polygon1336" />
  </g>
  <path
     d="m 1376.6089,139.81629 -778.36,18.19 -85.55,2 -217.77,5.09 c -13.17,32.52 -21.89,69.28 -25.9,107.4 h 1088.63 a 430.44,430.44 0 0 0 15.71,-68.45 c 3.24,-22.41 4.55,-44.06 3.24,-64.23 z m -888,82.87 h -19.5 a 9.59,9.59 0 0 1 9.75,9.37 c 0,0.19 0,0.38 0,0.57 a 9.32,9.32 0 0 1 -4.33,7.23 10,10 0 0 1 -5.4,1.58 h -112.84 a 9.38,9.38 0 1 1 0,-18.75 h 19.51 a 9.38,9.38 0 1 1 0,-18.75 h -13.93 a 9.38,9.38 0 1 1 0,-18.75 h 112.84 a 9.38,9.38 0 1 1 0,18.75 h 13.93 a 9.88,9.88 0 0 1 4.63,1.14 9.33,9.33 0 0 1 5.12,8.23 9.6,9.6 0 0 1 -9.75,9.38 z"
     fill="#6c63ff"
     opacity="0.1"
     id="path860" />
  <path
     d="m 945.7789,318.66629 c 1.5,5 -5.17,36.33 -5.17,36.33 0,0 -3.5,7.71 -2.83,8.44 0.67,0.73 -2.5,7.56 -9.5,6.89 -7,-0.67 -18,-3 -23.5,-2 -4.11,0.75 -15.87,-2.6 -21.37,-5.65 -1.87,-1 -3,-2.05 -2.9,-2.85 0.43,-3.16 10.93,-17.5 10.93,-17.5 a 29.35,29.35 0 0 0 4.8,0.86 c 0.44,0 0.76,-0.05 0.87,-0.19 0.5,-0.67 12.17,3.5 14,4.67 1.83,1.17 6.83,0.95 6.83,0.95 a 42.17,42.17 0 0 1 6.84,-11.12 16.87,16.87 0 0 0 3.85,-8.46 65.8,65.8 0 0 1 1.74,-7.31 c 1,-3.34 1.91,-7.67 0.74,-9.23 -2,-2.67 -21.67,-32.33 -4.67,-31.83 17,0.5 20.17,24 20.17,24 0,0 -2.33,9 -0.83,14 z"
     fill="#fbbebe"
     id="path988" />
  <path
     d="m 869.1089,346.74629 -14,6 -16.25,5 c 0,0 -37.25,-30.25 -27.75,-32.5 a 16.26,16.26 0 0 0 4.68,-2 36.94,36.94 0 0 0 7.53,-6.49 66.24,66.24 0 0 0 6.54,-8.47 c 0,0 36.75,-1.75 31,7 -2.24,3.41 -1.48,8.95 0.28,14.44 0.1,0.33 0.21,0.66 0.32,1 a 92.51,92.51 0 0 0 7.65,16.02 z"
     fill="#fbbebe"
     id="path990" />
  <path
     d="m 777.0289,515.10629 c 0,0 -6.45,-6 -8.8,3.24 a 95,95 0 0 0 -2.78,15.15 c 0,0 -3.56,10.89 -5.44,13.88 -1.88,2.99 -9.11,30.8 4.7,28 0,0 5.08,-1.08 6.07,-12.81 0.99,-11.73 9.53,-46.72 9.53,-46.72 z"
     fill="#3f3d56"
     id="path992" />
  <path
     d="m 881.8589,536.99629 c -14,5.24 -30.74,3.89 -39.59,2.6 -3.82,-0.55 -6.16,-1.1 -6.16,-1.1 l -43.75,-4.5 -0.88,0.92 -5.62,5.85 -6.5,15.73 c 0,0 -17.5,24 -19.5,9.75 a 58.58,58.58 0 0 1 -0.37,-9.4 c 0.4,-15.19 4.37,-35.35 4.37,-35.35 l 39.75,-5.25 25,-13 0.27,-13.56 0.06,-3.33 0.17,-8.36 34,3.25 6,13.5 0.06,0.06 c 0.88,0.82 12.08,11.33 15.44,14.69 3.36,3.36 17.25,20 -2.75,27.5 z"
     fill="#fbbebe"
     id="path994" />
  <path
     d="m 785.3989,541.88629 c 0,0 -17.85,0.75 -19,-2.45 l -5.53,13.19 c 0,0 16.25,6.25 18.5,3.87 z"
     fill="#6c63ff"
     id="path996" />
  <path
     d="m 754.1089,501.24629 c 0,0 -11.62,-5.75 -13.12,5.25 a 81.1,81.1 0 0 0 -0.75,17.88 c 0,0 -3,13.12 -5.25,16.87 -2.25,3.75 -7,36.92 14.12,31.25 0,0 7.75,-2.12 6.5,-15.75 -1.25,-13.63 3.84,-55.25 3.84,-55.25 z"
     fill="#3f3d56"
     id="path998" />
  <path
     d="m 818.3589,475.24629 36.25,32 c 0,0 21,11.25 -4,30.5 0,0 -11.25,4.75 -28.5,3 a 153,153 0 0 1 -31.5,-6.75 c 0,0 -13,-2 -17.5,5 -4.5,7 -14.5,22.25 -14.5,22.25 0,0 -12.25,24.25 -20.25,-5.75 l 10.25,-29.25 c 0,0 0.5,-9.75 0,-12 -0.5,-2.25 6.75,-12.25 10.5,-9 3.75,3.25 8.75,7.75 13,7.5 4.25,-0.25 15,-0.5 15,-0.5 l -6.25,-2.25 c 0,0 -18,-5 -16.75,-8.75 1.25,-3.75 10,-22 10,-22 z"
     opacity="0.1"
     id="path1000" />
  <path
     d="m 848.6089,537.74629 a 39.64,39.64 0 0 1 -6.34,1.85 70.18,70.18 0 0 1 -22.16,1.15 156.08,156.08 0 0 1 -28.63,-5.83 c -1.84,-0.56 -2.87,-0.92 -2.87,-0.92 0,0 -13,-2 -17.5,5 -3,4.61 -8.31,12.79 -11.62,17.85 l -2.88,4.4 c 0,0 -12.25,24.25 -20.25,-5.75 l 10.25,-29.25 c 0,0 0.5,-9.75 0,-12 -0.34,-1.53 2.89,-6.62 6.17,-8.71 1.55,-1 3.12,-1.34 4.33,-0.29 a 49.2,49.2 0 0 0 8,6.09 9.58,9.58 0 0 0 5,1.41 c 4.25,-0.25 15,-0.5 15,-0.5 l -6.25,-2.25 a 97.89,97.89 0 0 1 -10,-3.45 c -3.89,-1.64 -7.29,-3.6 -6.72,-5.3 1.25,-3.75 10,-22 10,-22 l 44.25,-4 12.58,11.11 5.39,4.75 18.28,16.14 c 0,0 20.97,11.25 -4.03,30.5 z"
     fill="#fbbebe"
     id="path1002" />
  <path
     d="m 817.1089,521.49629 c 0,0 -9.5,-12.75 -32,-9.25"
     fill="none"
     stroke="#000000"
     stroke-miterlimit="10"
     opacity="0.1"
     id="path1004" />
  <path
     d="m 745.6089,524.12629 -7.25,16.62 c 0,0 8,18.38 23.5,15.63 l 9.53,-17.27 c 0,0 -21.52,-2.24 -25.78,-14.98 z"
     opacity="0.1"
     id="path1006" />
  <path
     d="m 744.6089,525.12629 -7.25,16.62 c 0,0 8,18.38 23.5,15.63 l 9.53,-17.27 c 0,0 -21.52,-2.24 -25.78,-14.98 z"
     fill="#6c63ff"
     id="path1008" />
  <path
     d="m 886.3589,361.49629 a 17.89,17.89 0 0 0 -3,1.18 c -1.87,-1 -3,-2.05 -2.9,-2.85 0.43,-3.16 10.93,-17.5 10.93,-17.5 a 29.35,29.35 0 0 0 4.8,0.86 c 1.69,11.07 -6.76,17.6 -9.83,18.31 z"
     opacity="0.1"
     id="path1010" />
  <path
     d="m 869.1089,347.74629 -14,6 -16.25,5 c 0,0 -37.25,-30.25 -27.75,-32.5 a 16.26,16.26 0 0 0 4.68,-2 c 5.6,7.36 18.82,15 18.82,15 11.06,4 21.11,-3.3 26.53,-8.56 a 90.44,90.44 0 0 0 7.97,17.06 z"
     opacity="0.1"
     id="path1012" />
  <path
     d="m 884.3589,361.49629 c -3.25,0.75 -18,9.25 -18,9.25 l -9.25,16 c 0,0 0.25,9 0,15 -0.25,6 -7.25,5.25 -7.25,5.25 l -0.34,0.14 c -1.79,0.75 -10.19,4.28 -10.19,4.36 0,0.08 -17.22,-1.75 -17.22,-1.75 l -33.75,-5.5 c 0,0 -10.75,-0.5 -14.25,-4 l -0.1,-0.1 c -3.38,-3.45 -2.1,-5.94 3.35,-10.15 5.45,-4.21 1.25,-10.75 1.25,-10.75 0,0 -3,-10.75 -3,-17.25 0,-6.5 -3.25,-6.25 -3.25,-6.25 0,0 -2.25,0 7.75,-6.5 10,-6.5 -1.25,-36.75 2.25,-32.5 3.5,4.25 10,2 10.5,-0.5 0.5,-2.5 10.75,3.25 10.75,3.25 0,0 4.5,-2.75 6,0 a 3.26,3.26 0 0 0 4,1.75 c 2.5,8.25 21,19 21,19 16.5,6 30.75,-13.25 30.75,-13.25 0,0 5.5,1.5 6.25,3.77 0.75,2.27 7,2.16 7,2.16 0,0 7.5,0.82 7.75,3.07 0.25,2.25 7.5,5.25 7.5,5.25 3,12.25 -6.25,19.5 -9.5,20.25 z"
     fill="#ffffff"
     id="path1014" />
  <path
     d="m 849.8589,404.99629 -0.34,2.14 c -1.79,0.75 -10.19,4.28 -10.19,4.36 0,0.08 -17.22,-1.75 -17.22,-1.75 l -33.75,-5.5 c 0,0 -10.75,-0.5 -14.25,-4 l -0.1,-0.1 0.1,-1.9 5.5,-1 c 0,0 54,3 61.5,6.5 z"
     opacity="0.1"
     id="path1016" />
  <path
     d="m 869.1689,494.80629 c 0,1.24 -0.06,1.94 -0.06,1.94 0,0 -10.5,-16.25 -24.25,-8.25 a 17.63,17.63 0 0 1 -10.53,2.61 16.67,16.67 0 0 1 -5.45,-1.42 21.52,21.52 0 0 1 -7.52,-5.69 c 0,0 -24,5 -32.25,11.75 -8.25,6.75 -15,-2 -15,-2 0,0 -2.35,10.27 -5.28,12.8 -3.89,-1.64 -7.29,-3.6 -6.72,-5.3 1.25,-3.75 10,-22 10,-22 l 44.25,-4 12.58,11.11 0.17,-8.36 34,3.25 6,13.5 z"
     opacity="0.1"
     id="path1018" />
  <path
     d="m 779.6089,399.24629 c 0,0 54,3 61.5,6.5 l 8.75,1.25 -1.5,9.5 c 0,0 14.25,14.75 18.5,16.5 4.25,1.75 2.25,61.75 2.25,61.75 0,0 -10.5,-16.25 -24.25,-8.25 -13.75,8 -23.5,-4.5 -23.5,-4.5 0,0 -24,5 -32.25,11.75 -8.25,6.75 -15,-2 -15,-2 0,0 -2.75,12 -6,13.25 -3.25,1.25 -4,9.25 -4,9.25 0,0 -9,-1.75 -9,-4.5 0,-2.75 -0.25,-3.75 -2,-5.75 -1.75,-2 -2,-8.5 -2,-8.5 0,0 1,-7.5 -2.25,-10.5 -3.25,-3 -3,-15.75 -3,-15.75 0,0 -1.51,-8.25 0,-10.25 1.51,-2 2.5,-15.5 2.5,-15.5 0,0 5,-14 7.75,-19.25 2.75,-5.25 16,-14.25 16,-14.25 h 1.47 l 0.5,-9.75 z"
     fill="#6c63ff"
     id="path1020" />
  <circle
     cx="839.4389"
     cy="418.74631"
     r="1.58"
     fill="#3f3d56"
     id="circle1022" />
  <circle
     cx="831.01892"
     cy="454.5863"
     r="1.58"
     fill="#3f3d56"
     id="circle1024" />
  <circle
     cx="842.10895"
     cy="442.41629"
     r="1.58"
     fill="#3f3d56"
     id="circle1026" />
  <path
     d="m 776.4389,411.49629 h 2 c 0,0 -12,27.5 -12.66,19.83 -0.66,-7.67 10.66,-19.83 10.66,-19.83 z"
     opacity="0.1"
     id="path1028" />
  <path
     d="m 790.7789,413.49629 c 0,0 -13.67,21 -7,24 6.67,3 12.66,-23 12.66,-23 z"
     opacity="0.1"
     id="path1030" />
  <path
     d="m 808.9389,425.61629 c 0,0 5.17,31.88 11,38.05 5.83,6.17 -1,10.5 -1,10.5 0,0 20.5,1.83 27,3.16 6.5,1.33 16.5,-1.5 12.5,-4.16 -4,-2.66 -0.66,-31 -0.33,-32.34 0.33,-1.34 -12.83,24.58 -49.17,-15.21 z"
     opacity="0.1"
     id="path1032" />
  <path
     d="m 786.7789,388.16629 c 1.16,-0.5 19.83,-26.72 24.33,-24.61 4.5,2.11 -24.33,24.61 -24.33,24.61 z"
     opacity="0.1"
     id="path1034" />
  <path
     d="m 789.1089,364.99629 c 0,0 -7.5,11.5 -5.33,13.5 2.17,2 5.33,-13.5 5.33,-13.5 z"
     opacity="0.1"
     id="path1036" />
  <path
     d="m 799.1789,321.49629 c 0,0 7.6,15.17 5.43,18 -2.17,2.83 -5.43,-18 -5.43,-18 z"
     opacity="0.1"
     id="path1038" />
  <path
     d="m 884.4389,342.32629 c 0,0 -1.5,8.84 -3.5,9.17 -2,0.33 3.5,-9.17 3.5,-9.17 z"
     opacity="0.1"
     id="path1040" />
  <path
     d="m 848.4389,345.16629 c 0,0 21.17,5.18 22.84,6.34 1.67,1.16 -18.34,1.16 -22.84,-6.34 z"
     opacity="0.1"
     id="path1042" />
  <path
     d="m 926.4389,360.16629 c 0,0 -2.66,-10.34 -6.16,-10.17 -3.5,0.17 6.16,10.17 6.16,10.17 z"
     opacity="0.1"
     id="path1044" />
  <path
     d="m 917.2089,292.86629 c -1.3,2.69 -4.13,4.84 -4.09,7.83 0,1.42 0.71,2.73 1,4.13 a 8.34,8.34 0 0 1 -2,6.72 14.33,14.33 0 0 1 -5.93,4 c -1.31,0.51 -2.76,1 -3.56,2.13 -1.31,1.89 -0.17,4.41 0.37,6.65 0.86,3.61 -0.56,8.12 -4.09,9.24 -1.89,0.6 -4.15,0.19 -5.71,1.4 -1.56,1.21 -1.72,3.63 -2.69,5.43 a 6.22,6.22 0 0 1 -8.14,2.44 6.29,6.29 0 0 1 0.35,-2.72 5.12,5.12 0 0 1 -5.71,-2.33 6.82,6.82 0 0 1 0.05,-6 22.48,22.48 0 0 1 3.58,-5.12 75.42,75.42 0 0 0 10.86,-16.7 43.46,43.46 0 0 0 4.19,-19.36 14.81,14.81 0 0 0 -1.13,-5.78 14.34,14.34 0 0 0 -3.94,-4.78 c -0.83,-0.72 -1.71,-1.4 -2.57,-2.09 -0.6,-0.48 -1.2,-1 -1.77,-1.46 -0.78,-0.69 -3.88,-3.22 -3.63,-4.44 0.14,-0.7 2.24,-0.6 4.07,-0.62 a 9.93,9.93 0 0 0 2,-0.16 2,2 0 0 0 0.41,-0.12 15.75,15.75 0 0 1 1.89,-0.93 c 1.86,-0.58 3.78,0.59 5.33,1.77 a 66.21,66.21 0 0 0 7,5.07 13.68,13.68 0 0 0 8.25,2 7.47,7.47 0 0 1 2.78,-0.12 c 1.77,0.47 2.55,2.5 3,4.28 0.73,3.18 1.25,6.68 -0.17,9.64 z"
     fill="#3f3d56"
     id="path1046" />
  <path
     d="m 819.1089,267.39629 a 10.32,10.32 0 0 0 -1.14,0.2 18.43,18.43 0 0 0 -3.08,1.17 45.06,45.06 0 0 0 -5,3 l -12.32,8.06 a 10.15,10.15 0 0 0 -3,2.58 c -2.09,3.07 -0.13,7.46 2.9,9.62 1.4,1 3,1.7 4.37,2.72 a 6,6 0 0 1 2.68,4.2 c 0.15,2.61 -2.25,4.66 -4.66,5.65 -2.41,0.99 -5.11,1.38 -7.22,2.91 a 4.16,4.16 0 0 1 -1.44,0.82 3.16,3.16 0 0 1 -1.82,-0.35 75.56,75.56 0 0 1 -10.88,-5.61 1.47,1.47 0 0 1 0.45,1.57 21.72,21.72 0 0 1 -12.41,-31.65 c 1.29,-2.21 3,-4.2 4,-6.53 1,-2.33 1.38,-5.22 0,-7.35 -1,-1.49 -2.75,-2.49 -3.27,-4.2 -0.52,-1.71 0.56,-3.76 1.87,-5.15 2.89,-3 6.88,-4.8 10.07,-7.54 3.19,-2.74 5.6,-7.28 3.79,-11.07 -1.44,-3 -5.31,-5.23 -4.66,-8.5 a 5.79,5.79 0 0 1 2.77,-3.45 16.47,16.47 0 0 1 16,-1 3.69,3.69 0 0 1 1.57,-4 3.59,3.59 0 0 1 4.26,0.49 18.35,18.35 0 0 0 1.42,1.61 1.37,1.37 0 0 0 1.91,-0.08 1.88,1.88 0 0 0 0.21,-1 12.56,12.56 0 0 1 1.38,-5.29 40.21,40.21 0 0 1 4.73,36.31 14.33,14.33 0 0 0 -1.33,5.25 c 0.11,3.77 3.64,6.57 7.18,7.85 l 0.19,0.06 c 1.11,0.36 3,0.67 4.84,1.18 2.42,0.67 4.75,1.69 5,3.6 0.54,3.11 -6.2,3.49 -9.36,3.92 z"
     fill="#3f3d56"
     id="path1048" />
  <path
     d="m 790.9389,327.49629 c 0,0 -7,38.67 -7.56,29.17 -0.56,-9.5 -12.94,-14.34 -12.94,-14.34 0,0 -3.24,-1.32 -7.12,-3.11 1.25,-8.86 10.47,-15.17 17.65,-18.8 1.92,0.69 3.14,1.08 3.14,1.08 z"
     opacity="0.1"
     id="path1052" />
  <path
     d="m 799.0089,323.42629 -7.33,-6.68 c 0,0 -47.42,15 -15.42,43.42 h 13.49 l 12.36,-16.42 z"
     fill="#ffffff"
     id="path1054" />
  <path
     d="m 861.1089,329.68629 c 0.1,0.33 0.21,0.66 0.32,1 a 36.05,36.05 0 0 1 -38.14,-13.95 66.24,66.24 0 0 0 6.54,-8.47 c 0,0 36.75,-1.75 31,7 -2.21,3.39 -1.45,8.93 0.28,14.42 z"
     opacity="0.1"
     id="path1056" />
  <path
     d="m 888.5989,294.76629 a 36,36 0 1 1 -36,-36 35.86,35.86 0 0 1 36,36 z"
     fill="#fbbebe"
     id="path1058" />
  <path
     d="m 888.5989,294.76629 a 35.86,35.86 0 0 1 -2.8,13.93 16.21,16.21 0 0 1 -6.13,0.1 3.63,3.63 0 0 1 -2.17,-1 4,4 0 0 1 -0.73,-2 q -0.57,-3.33 -1.12,-6.64 c -3.24,1.27 -7,0.33 -10,-1.37 -3,-1.7 -5.64,-4.07 -8.56,-6 -2.92,-1.93 -6.41,-3.3 -9.84,-2.68 a 16.64,16.64 0 0 0 -5.26,2.21 36.77,36.77 0 0 0 -9,6.73 c -1.82,2 -3.41,4.4 -5.93,5.31 a 6.28,6.28 0 0 1 -7.83,-4 c -0.53,-1.85 -0.17,-3.83 -0.39,-5.74 a 4.46,4.46 0 0 0 -1.91,-3.32 36,36 0 0 1 71.73,4.43 z"
     opacity="0.1"
     id="path1060" />
  <path
     d="m 818.7789,292.65629 c 0.22,1.91 -0.14,3.89 0.39,5.74 a 6.28,6.28 0 0 0 7.83,4 c 2.52,-0.91 4.11,-3.33 5.93,-5.31 a 36.77,36.77 0 0 1 9,-6.73 16.64,16.64 0 0 1 5.26,-2.21 c 3.43,-0.62 6.91,0.79 9.84,2.68 2.93,1.89 5.52,4.27 8.56,6 3.04,1.73 6.77,2.64 10,1.37 l 1.12,6.64 a 4,4 0 0 0 0.73,2 3.63,3.63 0 0 0 2.17,1 16.19,16.19 0 0 0 7.45,-0.43 4.28,4.28 0 0 0 2.92,-2.08 4.67,4.67 0 0 0 0.3,-1.58 86.71,86.71 0 0 0 -5.78,-37.48 c -1.71,-4.34 -3.89,-8.69 -7.57,-11.54 a 30.56,30.56 0 0 0 -7,-3.7 c -7.48,-3.17 -15.72,-6.4 -23.53,-4.13 -3.44,1 -6.49,3 -9.49,5 l -14,9.29 a 8.74,8.74 0 0 0 -2,1.65 9.54,9.54 0 0 0 -1.51,3.3 64,64 0 0 1 -5.74,12.88 6.39,6.39 0 0 0 -1.08,2.67 6.1,6.1 0 0 0 0.58,2.57 c 0.72,1.87 1,3.26 2.64,4.36 1.64,1.1 2.72,1.88 2.98,4.04 z"
     fill="#3f3d56"
     id="path1062" />
  <g
     opacity="0.1"
     id="g1082"
     transform="translate(266.4589,6.2062933)">
    <path
       d="m 588.76,314.07 c -2.41,1 -5.11,1.38 -7.22,2.91 a 4.16,4.16 0 0 1 -1.44,0.82 3.16,3.16 0 0 1 -1.82,-0.35 74.78,74.78 0 0 1 -11,-5.71 1.45,1.45 0 0 1 0.6,1.67 A 22.06,22.06 0 0 1 554,300.58 c -0.8,-2.05 0.15,2.19 0,0 -0.22,3.19 -1.16,0 0,3 a 22.06,22.06 0 0 0 13.84,12.83 1.45,1.45 0 0 0 -0.6,-1.67 74.78,74.78 0 0 0 11,5.71 3.16,3.16 0 0 0 1.82,0.35 4.16,4.16 0 0 0 1.44,-0.82 c 2.11,-1.53 4.81,-1.93 7.22,-2.91 2.41,-0.98 4.81,-3 4.66,-5.65 a 4.2,4.2 0 0 0 -0.29,-1.27 7.77,7.77 0 0 1 -4.33,3.92 z"
       transform="translate(-55.35,-18.71)"
       id="path1064" />
    <path
       d="m 600.17,260.3 a 6,6 0 0 0 0.18,1.27 25.84,25.84 0 0 1 1.15,-3.52 39,39 0 0 0 2.31,-14.8 38.69,38.69 0 0 1 -2.31,11.8 14.33,14.33 0 0 0 -1.33,5.25 z"
       transform="translate(-55.35,-18.71)"
       id="path1066" />
    <path
       d="m 683.46,294.29 c -1.34,-2.87 -3.88,-4.78 -6.33,-6.72 0.28,1.19 0.53,2.39 0.76,3.6 2.2,1.74 4.37,3.55 5.57,6.12 a 14.48,14.48 0 0 1 1.12,5.49 c 0,-0.9 0,-1.8 0,-2.71 a 14.81,14.81 0 0 0 -1.12,-5.78 z"
       transform="translate(-55.35,-18.71)"
       id="path1068" />
    <path
       d="m 571.43,242.14 c 0.3,-1.47 1.1,-0.83 0.44,-2.22 -1.09,-2.26 -3.55,-4.08 -4.42,-6.24 a 3.76,3.76 0 0 0 -0.24,0.74 c -0.65,3.27 2.78,4.71 4.22,7.72 0.21,0.43 -0.89,-2.14 0,0 z"
       transform="translate(-55.35,-18.71)"
       id="path1070" />
    <path
       d="m 607.85,276.92 a 7.36,7.36 0 0 0 -1,0.18 28.9,28.9 0 0 0 -8.08,4.14 l -12.32,8.06 a 10.15,10.15 0 0 0 -3,2.58 5.45,5.45 0 0 0 -0.67,4.47 4.75,4.75 0 0 1 0.67,-1.47 10.15,10.15 0 0 1 3,-2.58 l 12.32,-8.06 a 29.53,29.53 0 0 1 7.86,-4.07 c 0.43,-1.08 0.84,-2.17 1.22,-3.25 z"
       transform="translate(-55.35,-18.71)"
       id="path1072" />
    <path
       d="m 702.94,317.11 a 9.14,9.14 0 0 1 -1.92,3.94 14.33,14.33 0 0 1 -5.93,4 c -1.31,0.51 -2.76,1 -3.56,2.13 a 4.63,4.63 0 0 0 -0.39,3.77 3.1,3.1 0 0 1 0.39,-0.77 c 0.8,-1.16 2.25,-1.62 3.56,-2.13 a 14.33,14.33 0 0 0 5.93,-4 8.34,8.34 0 0 0 2,-6.72 c -0.02,-0.08 -0.02,-0.15 -0.08,-0.22 z"
       transform="translate(-55.35,-18.71)"
       id="path1074" />
    <path
       d="m 706.1,302.37 c -1.3,2.69 -4.13,4.84 -4.09,7.83 a 5.78,5.78 0 0 0 0.23,1.48 c 0.69,-2.25 2.79,-4.1 3.86,-6.31 a 11,11 0 0 0 0.81,-6 9.37,9.37 0 0 1 -0.81,3 z"
       transform="translate(-55.35,-18.71)"
       id="path1076" />
    <path
       d="m 666.39,319.3 a 3.63,3.63 0 0 0 2.17,1 16.19,16.19 0 0 0 7.45,-0.43 4.28,4.28 0 0 0 2.92,-2.08 4.67,4.67 0 0 0 0.3,-1.58 c 0.17,-2.46 0.22,-4.92 0.17,-7.38 0,1.46 -0.07,2.92 -0.17,4.38 a 4.67,4.67 0 0 1 -0.3,1.58 4.28,4.28 0 0 1 -2.92,2.08 16.19,16.19 0 0 1 -7.45,0.43 3.63,3.63 0 0 1 -2.17,-1 4,4 0 0 1 -0.73,-2 q -0.57,-3.33 -1.12,-6.64 c -3.24,1.27 -7,0.33 -10,-1.37 -3,-1.7 -5.64,-4.07 -8.56,-6 -2.92,-1.93 -6.41,-3.3 -9.84,-2.68 a 16.64,16.64 0 0 0 -5.26,2.21 36.77,36.77 0 0 0 -9,6.73 c -1.82,2 -3.41,4.4 -5.93,5.31 a 6.28,6.28 0 0 1 -7.83,-4 c -0.53,-1.85 -0.17,-3.83 -0.39,-5.74 -0.26,-2.18 -1.35,-3 -3,-4.08 -1.65,-1.08 -1.92,-2.49 -2.64,-4.36 -0.09,-0.24 -0.19,-0.5 -0.27,-0.75 a 3.75,3.75 0 0 0 -0.31,1.18 6.1,6.1 0 0 0 0.58,2.57 c 0.72,1.87 1,3.26 2.64,4.36 1.64,1.1 2.7,1.9 3,4.08 0.22,1.91 -0.14,3.89 0.39,5.74 a 6.28,6.28 0 0 0 7.83,4 c 2.52,-0.91 4.11,-3.33 5.93,-5.31 a 36.77,36.77 0 0 1 9,-6.73 16.64,16.64 0 0 1 5.26,-2.21 c 3.43,-0.62 6.91,0.79 9.84,2.68 2.93,1.89 5.52,4.27 8.56,6 3.04,1.73 6.77,2.64 10,1.37 q 0.56,3.32 1.12,6.64 a 4,4 0 0 0 0.73,2 z"
       transform="translate(-55.35,-18.71)"
       id="path1078" />
    <path
       d="m 687.81,343.07 c -1.89,0.6 -4.15,0.19 -5.71,1.4 -1.56,1.21 -1.72,3.63 -2.69,5.43 a 6.22,6.22 0 0 1 -8.14,2.44 6.29,6.29 0 0 1 0.35,-2.72 5.12,5.12 0 0 1 -5.71,-2.33 5.24,5.24 0 0 1 -0.51,-1.31 6.15,6.15 0 0 0 0.51,4.31 5.12,5.12 0 0 0 5.71,2.33 6.29,6.29 0 0 0 -0.35,2.72 6.22,6.22 0 0 0 8.14,-2.44 c 1,-1.8 1.07,-4.17 2.69,-5.43 1.62,-1.26 3.82,-0.8 5.71,-1.4 3.33,-1.06 4.78,-5.12 4.21,-8.61 -0.4,2.54 -1.82,4.85 -4.21,5.61 z"
       transform="translate(-55.35,-18.71)"
       id="path1080" />
  </g>
  <path
     d="m 823.4889,259.88629 a 35.92,35.92 0 0 1 -4.38,7.51 10.32,10.32 0 0 0 -1.14,0.2 18.43,18.43 0 0 0 -3.08,1.17 62.45,62.45 0 0 1 3.77,-10.06 c 1.1,0.36 2.99,0.67 4.83,1.18 z"
     fill="#6c63ff"
     id="path1084" />
  <path
     d="m 890.6289,280.00629 c -0.83,-0.72 -1.71,-1.4 -2.57,-2.09 -0.5,-2 -1,-4.39 -1.33,-6.52 a 9.93,9.93 0 0 0 2,-0.16 27.53,27.53 0 0 1 1.9,8.77 z"
     fill="#6c63ff"
     id="path1086" />
  <circle
     cx="267.73862"
     cy="159.51907"
     r="6.8853798"
     fill="#d0cde1"
     id="circle512" />
  <circle
     cx="283.80447"
     cy="403.94992"
     r="6.8853798"
     fill="#d0cde1"
     id="circle536" />
  <circle
     cx="72.652977"
     cy="149.19104"
     r="6.8853798"
     fill="#d0cde1"
     id="circle558" />
  <circle
     cx="228.72148"
     cy="179.02765"
     r="18.361"
     fill="#d0cde1"
     id="circle562" />
  <circle
     cx="148.01595"
     cy="237.70663"
     r="20.446171"
     fill="#a0616a"
     id="circle640" />
  <path
     d="m 152.82668,211.63589 c 7.28469,0.45635 14.04371,3.83473 20.36077,7.49118 a 2.63686,2.63686 0 0 0 -3.18293,0.62814 c -0.84281,0.81713 -1.37256,1.90844 -2.18371,2.757 -1.50766,1.57719 -3.76919,2.1229 -5.899,2.59674 l -9.92639,2.20847 -9.20638,2.04828 a 18.71819,18.71819 0 0 1 -7.05026,0.64793 c -2.34334,-0.3863 -4.66277,-1.89806 -5.27513,-4.19261 -0.85075,-3.18785 5.48706,-7.932 7.81111,-9.85151 a 21.10291,21.10291 0 0 1 14.55192,-4.33362 z"
     fill="#2f2e41"
     id="path642" />
  <path
     d="m 127.29664,228.36518 c 4.29151,-6.02636 10.98949,-9.94443 17.70816,-13.32374 -1.13045,0.44739 -1.41757,1.9119 -1.11446,3.10176 0.30311,1.18986 1.02464,2.26492 1.37347,3.44527 0.64835,2.19389 -0.0521,4.454 -0.74862,6.55984 l -3.24621,9.81456 -3.01074,9.10266 a 17.85441,17.85441 0 0 1 -3.15187,6.44947 6.55158,6.55158 0 0 1 -6.65767,2.17676 c -3.38242,-1.07132 -4.37445,-9.22587 -4.90349,-12.31792 a 20.47861,20.47861 0 0 1 3.75143,-15.00866 z"
     fill="#2f2e41"
     id="path644" />
  <path
     d="m 237.01689,222.07133 c 0,0 1.20271,-26.45974 7.21629,-25.257 6.01358,1.20274 1.20272,27.66246 1.20272,27.66246 z"
     fill="#a0616a"
     id="path646" />
  <path
     d="m 235.81612,267.77538 -27.02247,19.57091 -7.85988,5.68846 -20.4432,-28.86918 12.75958,-5.02958 26.9297,-10.60669 15.63627,-31.27259 13.22357,3.60981 c 2.41278,6.01323 -13.22357,46.90886 -13.22357,46.90886 z"
     fill="#575a89"
     id="path648"
     style="fill:#5263ff" />
  <path
     d="m 193.71912,216.05775 c 0,0 -3.60814,-31.2706 3.60815,-28.86517 7.21629,2.40543 6.01358,32.47332 6.01358,32.47332 z"
     fill="#a0616a"
     id="path650" />
  <polygon
     points="259.389,764.676 259.021,740.625 246.996,740.808 240.056,758.957 "
     fill="#575a89"
     id="polygon652"
     transform="translate(-108.05367,-244.42294)" />
  <polygon
     points="304.028,616.042 284.798,695.725 266.329,746.527 242.277,746.895 264.133,681.606 272.651,609.305 "
     fill="#2f2e41"
     id="polygon654"
     transform="translate(-108.05367,-244.42294)" />
  <path
     d="m 129.30747,512.55641 c 0,0 -7.32217,15.586 -2.38486,17.71989 4.93731,2.13389 18.34752,5 18.34752,5 l 1.841,-1.54814 c 0,0 30.98367,6.9455 36.17195,-3.70319 5.18828,-10.64869 -19.16349,-15.31387 -19.16349,-15.31387 l -11.1299,-9.498 -13.36822,6.52734 z"
     fill="#2f2e41"
     id="path656" />
  <polygon
     points="234.08,761.455 233.712,737.403 221.686,737.587 214.747,755.736 "
     fill="#575a89"
     id="polygon658"
     transform="translate(-108.05367,-244.42294)" />
  <polygon
     points="245.978,611.51 238.879,681.993 216.913,740.066 237.467,746.968 268.999,685.141 283.547,613.95 "
     fill="#2f2e41"
     id="polygon660"
     transform="translate(-108.05367,-244.42294)" />
  <path
     d="m 208.79365,287.34629 -7.85988,5.68846 -20.4432,-28.86918 5.68846,-1.01146 c 0.31553,0.51966 5.243,0.38973 5.56782,0.928 5.96684,9.77146 14.56913,18.03042 17.0468,23.26418 z"
     opacity="0.15"
     id="path664" />
  <path
     d="m 221.44188,383.79018 c -1.39237,-0.90065 -1.71661,-10.31336 -3.71188,-11.13564 -1.0125,-0.41727 -3.49053,7.72711 -4.63912,7.3297 -29.82037,-10.3178 -96.48125,11.80027 -107.64522,-12.89752 -7.50591,-16.60517 40.16256,-48.802 40.16256,-60.8284 a 35.33917,35.33917 0 0 0 -1.65181,-9.01061 c -2.27354,-7.962 -6.50508,-17.98406 -9.92,-25.547 -2.92313,-6.47722 -5.26158,-11.14487 -5.26158,-11.14487 0,0 35.068,-10.42114 46.30566,-14.4485 1.42911,-0.51043 2.46843,-0.91868 3.00667,-1.18783 2.15284,-1.07642 7.68356,6.533 13.35344,15.80335 6.97835,11.42331 14.17941,25.38 15.5064,28.7021 2.40341,6.0132 34.93808,107.59802 14.49488,94.36522 z"
     fill="#575a89"
     id="path666"
     style="fill:#5263ff" />
  <path
     d="m 187.107,258.51426 c -13.01939,15.67337 -27.03176,34.40908 -39.09537,37.95393 a 20.03225,20.03225 0 0 1 -4.05522,0.77952 c -2.27354,-7.962 -6.50508,-17.98406 -9.92,-25.547 a 16.405,16.405 0 0 1 4.90894,-3.684 l 32.61812,-16.05387 3.517,-5.85549 c 1.42911,-0.51043 2.46843,-0.91868 3.00667,-1.18783 2.15286,-1.07646 3.34998,4.32432 9.01986,13.59474 z"
     opacity="0.15"
     id="path668" />
  <path
     d="m 138.94467,263.37763 c -8.90871,4.38556 -12.15467,15.7834 -6.38316,23.8635 2.995,4.19306 7.78711,6.8428 15.45442,4.5877 20.44617,-6.01357 58.93307,-49.31134 58.93307,-62.54121 v -12.02715 l -14.43259,-4.81087 -20.954,34.871 z"
     fill="#575a89"
     id="path670"
     style="fill:#5263ff" />
  <ellipse
     cx="0.8308844"
     cy="327.3136"
     rx="1.85594"
     ry="3.71188"
     transform="rotate(-35.51518)"
     fill="#2f2e41"
     id="ellipse672" />
  <ellipse
     cx="-0.56695539"
     cy="338.85669"
     rx="1.85594"
     ry="3.71188"
     transform="rotate(-35.51518)"
     fill="#2f2e41"
     id="ellipse674" />
  <ellipse
     cx="-3.2592146"
     cy="350.61603"
     rx="1.85594"
     ry="3.71188"
     transform="rotate(-35.51518)"
     fill="#2f2e41"
     id="ellipse676" />
  <ellipse
     cx="96.363029"
     cy="348.28946"
     rx="1.85594"
     ry="3.71188"
     transform="rotate(-18.86655)"
     fill="#2f2e41"
     id="ellipse678" />
  <ellipse
     cx="96.274582"
     cy="360.0271"
     rx="1.85594"
     ry="3.71188"
     transform="rotate(-18.86655)"
     fill="#2f2e41"
     id="ellipse680" />
  <ellipse
     cx="96.486237"
     cy="370.88663"
     rx="1.85594"
     ry="3.71188"
     transform="rotate(-18.86655)"
     fill="#2f2e41"
     id="ellipse682" />
  <ellipse
     cx="94.641602"
     cy="382.0242"
     rx="1.85594"
     ry="3.71188"
     transform="rotate(-18.86655)"
     fill="#2f2e41"
     id="ellipse684" />
  <ellipse
     cx="92.796944"
     cy="393.16168"
     rx="1.85594"
     ry="3.71188"
     transform="rotate(-18.86655)"
     fill="#2f2e41"
     id="ellipse686" />
  <ellipse
     cx="90.652237"
     cy="405.17731"
     rx="1.85594"
     ry="3.71188"
     transform="rotate(-18.86655)"
     fill="#2f2e41"
     id="ellipse688" />
  <ellipse
     cx="87.629387"
     cy="416.89285"
     rx="1.85594"
     ry="3.71188"
     transform="rotate(-18.86655)"
     fill="#2f2e41"
     id="ellipse690" />
  <path
     id="Path_111"
     data-name="Path 111"
     d="m 614.1799,160.37493 a 10.743,10.743 0 0 0 15.83142,-4.56386 L 718.036,125.457 708.01538,106.60673 623.86815,141.2338 a 10.8,10.8 0 0 0 -9.68416,19.14058 z"
     fill="#a0616a" />
  <path
     id="Path_112"
     data-name="Path 112"
     d="m 704.40682,314.31248 -12.075,2.123 -11.934,-45.564 15.821,-3.133 z"
     fill="#a0616a" />
  <path
     id="Path_113"
     data-name="Path 113"
     d="m 696.6755,347.47284 37.94901,-6.67163 -2.57751,-14.66115 -23.28687,4.09395 a 14.887,14.887 0 0 0 -12.08446,17.23982 z"
     fill="#2f2e41" />
  <path
     id="Path_114"
     data-name="Path 114"
     d="m 719.787,326.14006 h 12.26 l 5.832,-47.288 h -18.094 z"
     fill="#a0616a" />
  <path
     id="Path_115"
     data-name="Path 115"
     d="m 665.87504,329.19748 38.531,0.002 7.8e-4,-14.887 -23.644,-10e-4 a 14.887,14.887 0 0 0 -14.88778,14.88622 z"
     fill="#2f2e41" />
  <path
     id="Path_116"
     data-name="Path 116"
     d="m 684.138,281.84245 a -4.735,2.8617135 0 0 0 0.572,-0.0205 l 14.43,-0.71739 a -4.881,2.9499522 0 0 0 4.243,-3.42015 l -14.325,-42.7178 9,-28.69208 a -1.627,0.98331738 0 0 1 3.219,0.0967 l 13.261,72.90389 a -4.924,2.9759403 0 0 0 5.21,2.68161 l 13.595,-0.30581 a -4.888,2.9541828 0 0 0 4.536,-2.79886 l -1.086,-88.09847 -70.481,-5.32454 -4.924,45.95724 0.02,0.049 17.991,48.15354 a -4.886,2.952974 0 0 0 4.739,2.25371 z"
     fill="#2f2e41"
     style="stroke-width:0.777415" />
  <circle
     id="Ellipse_16"
     data-name="Ellipse 16"
     cx="693.24634"
     cy="56.417957"
     r="24.561001"
     fill="#a0616a" />
  <path
     id="Path_117"
     data-name="Path 117"
     d="m 682.25042,191.18531 a -20.111,12.506148 0 0 0 10.857,-1.93148 c 11.9,-4.62412 25.411,-2.78654 32.407,-1.27916 a -4.88,3.0346578 0 0 0 4.221,-0.29911 -4.811,2.9917497 0 0 0 2.224,-2.20883 l 12.721,-70.6584 c 2.132,-11.8389 -9.336,-22.969503 -27.268,-26.466203 v 0 q -1.011,-0.19713 -2.055,-0.37311 a -39.569,24.606224 0 0 0 -32.972,3.55888 -40.2,24.998615 0 0 0 -17.167,18.253343 l -10.711,71.13226 a -4.807,2.9892623 0 0 0 1.527,2.49177 c 3.756,2.15909 14.654,7.77942 26.216,7.78004 z"
     fill="#6c63ff"
     style="stroke-width:0.788579" />
  <path
     id="Path_118"
     data-name="Path 118"
     d="m 690.06703,140.16427 -28.7,-3.156 a 5.717,5.717 0 0 1 -4.905,-7.134 l 7.306,-27.846 a 15.879,15.879 0 1 1 31.556,3.563 l 1.085,28.675 a 5.718,5.718 0 0 1 -6.338,5.9 z"
     fill="#6c63ff" />
  <path
     id="Path_119"
     data-name="Path 119"
     d="m 746.304,230.087 a 10.743,10.743 0 0 0 -0.406,-16.468 l -7.073,-92.842 -20.789,4.68 12.2,90.414 a 10.8,10.8 0 0 0 16.064,14.216 z"
     fill="#a0616a"
     style="fill:#a0616a" />
  <path
     id="Path_120"
     data-name="Path 120"
     d="m 710.067,136.709 a 5.711,5.711 0 0 1 -1.818,-4.4 l 1.085,-28.675 a 15.878256,15.878256 0 1 1 31.556,-3.563 l 7.306,27.846 a 5.717,5.717 0 0 1 -4.905,7.134 l -28.7,3.156 a 5.711,5.711 0 0 1 -4.52,-1.5 z"
     fill="#6c63ff" />
  <path
     id="Path_121"
     data-name="Path 121"
     d="m 663.4487,50.349482 a 5.683,5.683 0 0 1 0.151,-1.3 l 0.03,-0.125 c 3.3,-21.594 15.812,-26.367 21.035,-27.414 5.408,-1.084 10.628,0.15 12.656,2.94 4.8,-1.521 9.061,-1.277 12.662,0.727 6.28,3.5 8.4,11.081 8.664,12.1 4.469,6.058 1.486,13.306 0.881,14.625 4.335,11.719 0.727,16.2 -0.079,17.008 -0.941,5.238 -2.964,8.431 -6.016,9.491 -5.731,1.991 -12.86,-4.305 -13.161,-4.574 l -0.156,-0.14 -0.447,-9.38 a 6.358,6.358 0 0 0 -7.317,-5.981 v 0 a 29.611,29.611 0 0 0 -3.355,0.96 c -5.006,1.6 -9.283,2.8 -10.909,1.254 a 2.51,2.51 0 0 1 -0.455,-2.625 c 0.392,-1.467 0.31,-2.462 -0.245,-2.958 -0.859,-0.77 -3.035,-0.535 -6.125,0.662 a 5.739,5.739 0 0 1 -5.847,-1.046 5.568,5.568 0 0 1 -1.967,-4.226 z"
     fill="#2f2e41" />
</svg>
